<mxfile host="Electron" modified="2023-11-14T11:58:41.126Z" agent="Mozilla/5.0 (Windows NT 10.0; Win64; x64) AppleWebKit/537.36 (KHTML, like Gecko) draw.io/22.0.3 Chrome/114.0.5735.289 Electron/25.8.4 Safari/537.36" etag="-apMG8_7WWVaaBG8Oi-2" version="22.0.3" type="device">
  <diagram name="Page-1" id="ZmZeymeduTzTPU2Zci2c">
    <mxGraphModel dx="2537" dy="2084" grid="1" gridSize="10" guides="1" tooltips="1" connect="1" arrows="1" fold="1" page="1" pageScale="1" pageWidth="850" pageHeight="1100" math="0" shadow="0">
      <root>
        <mxCell id="0" />
        <mxCell id="1" parent="0" />
        <mxCell id="giXjE-jGlY2pUmAAoUkI-12" value="" style="shape=image;verticalLabelPosition=bottom;labelBackgroundColor=default;verticalAlign=top;aspect=fixed;imageAspect=0;image=data:image/png,iVBORw0KGgoAAAANSUhEUgAAAFoAAABaCAYAAAA4qEECAAAACXBIWXMAAAsTAAALEwEAmpwYAAAEU0lEQVR4nO2cTahWRRiAnxsiBG0qLMmVEZEaUWEILVKoTWTbxDaGq342YUQtvN5zNyKSJmpYBPbnQmpbihRtLkjUtiKIyn5MBfWq1+vNrjoyMB+YnTnfd+bnnJlz3gdmc++cOXOfO9/MO/PNDAiCIAiCIOTOMuBT4CxwCZgC1rZdqa7xJDADqJvSNWC87cp1hSeAiyWS1Q1pW9uV7INkJbKbk6xEdnOSlciuP/BdcpSsTCoc/8G9YbkluhDZgfkskGQlLbua6cCilXQj5cxFEK1E9v+ZiiRaiez/stZMq1OW/TDwCXAc+Bf4C/gQeJDMGI8oWnnKfg24Yil3HniFzHgjsuxtDnUqRix7M5mRkuyiZtnZya77B6qaaU3EOrxJZsRq2RMN/KM39132RIOfpt7Knmihy8pOdtFAaFdE6qqyC/2KDCUP4uwVZEaRmeRB+oAMKQJKnmxAsk5/kClFRpJ1ukzGFJlI1ulPMqfIQLJOH9EBisQl61W/h+gIqxOVrNMmesRkS5JHmY12hkmRHJ/XRXJ8HgGuSncRnwMiuRmOy8CX96Yc1ffo4maOieRmeF9acnOnuf6JKHsLPWMlsB04Cpwyx+T0atlXwA8iOczm9a9bCOG2BFp7yYLnI3cLPpLrrCYmz97EJauuyB4D9iQuuTOHTscaku0jWWTTnOROyX7HoaV+XzGg6q+fXm1pn0nnZH8JPAC8B/xqzjn+Buwf8bhEzJ1Tneqzj3m8y3d3U6+6kWnHd4TaQhatZd8SOX9d2X9Tn9D79ILKvtVMMM6ZtMf8LFR+V9n6bGMdYm2GDCZ7V0nhOwPmd5W9ldFZE0lyUNknSwo+ETC/q2x9QLMOReqyL1sKXmjJf8GS/7aAso84lpW07NOWQu+05P/Jkv8xjzrcKFtfvnK/R1mxZTvffvazpUC976KMLyz5d+LHmBlk1+FPbNnPulTqsKWw9Zb8L1vyzyV2FiSm7LoRkTWKUOajXMYSc8Cm7JnfE7tNIJbsWZfKrLMUprsUG/sqKjEHvA2s8hggU5d9xqUid1XcxaFllbHYTFZGnUrvdZjUpCz7oGtFvrEU+HHFM09X3JGhStK7tEso2TNmVdEJ2wCn++L7Kp57sYbsWY/1kVRk69DzKZ8K3FFxr50O5xjSss9lItpHtrfkAW9VvGTDkGcXmwFyvqIM/ftUKNqSPJBlm15fHHHt4R7gJeBz4EfzKdE7k3a3PBj6yA4qecCmiheeGNJf50jRhmTNAuC7IbJtU/NcGbeEtzOxJA+4d8jgpge1jXTvXr8p04LPmDjZOYSrwzNDBjZl1kh8VtkEwwsj3N44bw79PC7W/GUPa9mD9IsJ4fRO0kfNerbtywPB0o34XGs8ncBaRzYsBb71kK0SWOvIhgVmv9t5R9GziUzBs+FucybFNotUIjost5vp9tER75beF/j9vWQR8BywAzhkvik/bbYypLrWIQiCIAiCQL5cB0VrOkREZnNaAAAAAElFTkSuQmCC;" vertex="1" parent="1">
          <mxGeometry x="507.5" y="-310" width="90" height="90" as="geometry" />
        </mxCell>
        <mxCell id="giXjE-jGlY2pUmAAoUkI-20" value="" style="shape=image;verticalLabelPosition=bottom;labelBackgroundColor=default;verticalAlign=top;aspect=fixed;imageAspect=0;image=data:image/png,iVBORw0KGgoAAAANSUhEUgAAAFoAAABaCAYAAAA4qEECAAAACXBIWXMAAAsTAAALEwEAmpwYAAAEU0lEQVR4nO2cTahWRRiAnxsiBG0qLMmVEZEaUWEILVKoTWTbxDaGq342YUQtvN5zNyKSJmpYBPbnQmpbihRtLkjUtiKIyn5MBfWq1+vNrjoyMB+YnTnfd+bnnJlz3gdmc++cOXOfO9/MO/PNDAiCIAiCIOTOMuBT4CxwCZgC1rZdqa7xJDADqJvSNWC87cp1hSeAiyWS1Q1pW9uV7INkJbKbk6xEdnOSlciuP/BdcpSsTCoc/8G9YbkluhDZgfkskGQlLbua6cCilXQj5cxFEK1E9v+ZiiRaiez/stZMq1OW/TDwCXAc+Bf4C/gQeJDMGI8oWnnKfg24Yil3HniFzHgjsuxtDnUqRix7M5mRkuyiZtnZya77B6qaaU3EOrxJZsRq2RMN/KM39132RIOfpt7Knmihy8pOdtFAaFdE6qqyC/2KDCUP4uwVZEaRmeRB+oAMKQJKnmxAsk5/kClFRpJ1ukzGFJlI1ulPMqfIQLJOH9EBisQl61W/h+gIqxOVrNMmesRkS5JHmY12hkmRHJ/XRXJ8HgGuSncRnwMiuRmOy8CX96Yc1ffo4maOieRmeF9acnOnuf6JKHsLPWMlsB04Cpwyx+T0atlXwA8iOczm9a9bCOG2BFp7yYLnI3cLPpLrrCYmz97EJauuyB4D9iQuuTOHTscaku0jWWTTnOROyX7HoaV+XzGg6q+fXm1pn0nnZH8JPAC8B/xqzjn+Buwf8bhEzJ1Tneqzj3m8y3d3U6+6kWnHd4TaQhatZd8SOX9d2X9Tn9D79ILKvtVMMM6ZtMf8LFR+V9n6bGMdYm2GDCZ7V0nhOwPmd5W9ldFZE0lyUNknSwo+ETC/q2x9QLMOReqyL1sKXmjJf8GS/7aAso84lpW07NOWQu+05P/Jkv8xjzrcKFtfvnK/R1mxZTvffvazpUC976KMLyz5d+LHmBlk1+FPbNnPulTqsKWw9Zb8L1vyzyV2FiSm7LoRkTWKUOajXMYSc8Cm7JnfE7tNIJbsWZfKrLMUprsUG/sqKjEHvA2s8hggU5d9xqUid1XcxaFllbHYTFZGnUrvdZjUpCz7oGtFvrEU+HHFM09X3JGhStK7tEso2TNmVdEJ2wCn++L7Kp57sYbsWY/1kVRk69DzKZ8K3FFxr50O5xjSss9lItpHtrfkAW9VvGTDkGcXmwFyvqIM/ftUKNqSPJBlm15fHHHt4R7gJeBz4EfzKdE7k3a3PBj6yA4qecCmiheeGNJf50jRhmTNAuC7IbJtU/NcGbeEtzOxJA+4d8jgpge1jXTvXr8p04LPmDjZOYSrwzNDBjZl1kh8VtkEwwsj3N44bw79PC7W/GUPa9mD9IsJ4fRO0kfNerbtywPB0o34XGs8ncBaRzYsBb71kK0SWOvIhgVmv9t5R9GziUzBs+FucybFNotUIjost5vp9tER75beF/j9vWQR8BywAzhkvik/bbYypLrWIQiCIAiCQL5cB0VrOkREZnNaAAAAAElFTkSuQmCC;" vertex="1" parent="1">
          <mxGeometry x="375" y="-130" width="70" height="70" as="geometry" />
        </mxCell>
        <mxCell id="giXjE-jGlY2pUmAAoUkI-21" value="" style="shape=image;verticalLabelPosition=bottom;labelBackgroundColor=default;verticalAlign=top;aspect=fixed;imageAspect=0;image=data:image/png,iVBORw0KGgoAAAANSUhEUgAAAFoAAABaCAYAAAA4qEECAAAACXBIWXMAAAsTAAALEwEAmpwYAAAEU0lEQVR4nO2cTahWRRiAnxsiBG0qLMmVEZEaUWEILVKoTWTbxDaGq342YUQtvN5zNyKSJmpYBPbnQmpbihRtLkjUtiKIyn5MBfWq1+vNrjoyMB+YnTnfd+bnnJlz3gdmc++cOXOfO9/MO/PNDAiCIAiCIOTOMuBT4CxwCZgC1rZdqa7xJDADqJvSNWC87cp1hSeAiyWS1Q1pW9uV7INkJbKbk6xEdnOSlciuP/BdcpSsTCoc/8G9YbkluhDZgfkskGQlLbua6cCilXQj5cxFEK1E9v+ZiiRaiez/stZMq1OW/TDwCXAc+Bf4C/gQeJDMGI8oWnnKfg24Yil3HniFzHgjsuxtDnUqRix7M5mRkuyiZtnZya77B6qaaU3EOrxJZsRq2RMN/KM39132RIOfpt7Knmihy8pOdtFAaFdE6qqyC/2KDCUP4uwVZEaRmeRB+oAMKQJKnmxAsk5/kClFRpJ1ukzGFJlI1ulPMqfIQLJOH9EBisQl61W/h+gIqxOVrNMmesRkS5JHmY12hkmRHJ/XRXJ8HgGuSncRnwMiuRmOy8CX96Yc1ffo4maOieRmeF9acnOnuf6JKHsLPWMlsB04Cpwyx+T0atlXwA8iOczm9a9bCOG2BFp7yYLnI3cLPpLrrCYmz97EJauuyB4D9iQuuTOHTscaku0jWWTTnOROyX7HoaV+XzGg6q+fXm1pn0nnZH8JPAC8B/xqzjn+Buwf8bhEzJ1Tneqzj3m8y3d3U6+6kWnHd4TaQhatZd8SOX9d2X9Tn9D79ILKvtVMMM6ZtMf8LFR+V9n6bGMdYm2GDCZ7V0nhOwPmd5W9ldFZE0lyUNknSwo+ETC/q2x9QLMOReqyL1sKXmjJf8GS/7aAso84lpW07NOWQu+05P/Jkv8xjzrcKFtfvnK/R1mxZTvffvazpUC976KMLyz5d+LHmBlk1+FPbNnPulTqsKWw9Zb8L1vyzyV2FiSm7LoRkTWKUOajXMYSc8Cm7JnfE7tNIJbsWZfKrLMUprsUG/sqKjEHvA2s8hggU5d9xqUid1XcxaFllbHYTFZGnUrvdZjUpCz7oGtFvrEU+HHFM09X3JGhStK7tEso2TNmVdEJ2wCn++L7Kp57sYbsWY/1kVRk69DzKZ8K3FFxr50O5xjSss9lItpHtrfkAW9VvGTDkGcXmwFyvqIM/ftUKNqSPJBlm15fHHHt4R7gJeBz4EfzKdE7k3a3PBj6yA4qecCmiheeGNJf50jRhmTNAuC7IbJtU/NcGbeEtzOxJA+4d8jgpge1jXTvXr8p04LPmDjZOYSrwzNDBjZl1kh8VtkEwwsj3N44bw79PC7W/GUPa9mD9IsJ4fRO0kfNerbtywPB0o34XGs8ncBaRzYsBb71kK0SWOvIhgVmv9t5R9GziUzBs+FucybFNotUIjost5vp9tER75beF/j9vWQR8BywAzhkvik/bbYypLrWIQiCIAiCQL5cB0VrOkREZnNaAAAAAElFTkSuQmCC;" vertex="1" parent="1">
          <mxGeometry x="556" y="-120" width="70" height="70" as="geometry" />
        </mxCell>
        <mxCell id="giXjE-jGlY2pUmAAoUkI-41" value="" style="shape=image;verticalLabelPosition=bottom;labelBackgroundColor=default;verticalAlign=top;aspect=fixed;imageAspect=0;image=data:image/png,iVBORw0KGgoAAAANSUhEUgAAAGQAAABkCAYAAABw4pVUAAAACXBIWXMAAAsTAAALEwEAmpwYAAADmUlEQVR4nO2cTaiNWxjHf+dy70H5SL5jgOTUNVDEBGHAkcllcOTKRAaUJCMfoW43hgwMyMxXEkkUnZFu6URJPu7gohCRj3zk+v54tHZro9Pe5+zzOmevZ+/3/6v/8Jz9rP/zvnuv9axnLRBCCCGEEEIIIYQQQgghhBBCZKY/MBfYBBwGWoFLwO2o60AbcAjYAvwBDM7+caIUQ4G1wAXgE2Bd1OeYtA3A6JKfICpiCnAC+JAhCR0l5yQwvbIQRGACcAT40o2JKKUzwMTCJ4qS/AJs7OY3ojO9A/4Cfi0dUn4ZDpytYiLa6yIwNrUJXpgKPEmYjKJCDNPIOTOAlw6SUdT/wDxyypxogDnTG2AmOWM88MyB+eX0HPidnNA3LtTMuW4AA8gB+x2YXalCrDW3iFsKrAO2A9uANcAsoF+Z3w2rMc3HOcOAHcB/nQzkPXAcWBD/rjdw1YHBWb66GnFIn/gWZJkZ/QPsdGBuVq3GGWNitdVyqrvAbzghTP+eOjDFEqsFB4yKT0dqM8yBTnmovrY5MMKc6CMwJGVCVjowwZypJeWM6rEDA8yZ9qRKSIuDwZtDXU6VkNMOBm8O9RpoqHYyGpztUZgzhTVZVRntYNDmWJOrmYzG2GCWetDmWKFwWpWOwM3AQwcDtrxXf8Me8h0HA7Ua0W6guSdaVHvFf97TDWn1qs+xkrEi7oL+FP1iS2XqQVmdKPQH/J01MaGMfM7BIKwOdTPuinaJfQ4CtzpW+AnYWmkyVjkI2HKiXZ2t6kdoBU6KpJTlgIOnxnKoP0slo0nTW1Il5AUwrn1Carnjw+pAR9tvNnnuo7WcLCInFRMy20FAEoVjegXCnFiGkNyDt8X22jMOgpEoeLCQeJhehuDCg1DM5ZGDQCQKHpynyseMJTr0IGwAFjolZBRuzi/ywEEgEt/aUQvfWzIEFx6EBbr2P/CjMONluYNAJAoeHAsJGRlrKTKF5B6sL5ZPWh0EY9L3AuNimUHqB+JK+9NQ/yopuDrJ2+zgKbGc6l65s+6HHQRnOVTZo3ADgVsOArQcKdxm0SFNTm5wsxwoXD8yiBq6Vs/qWPe7eo9jU+xFTR241embkelSzXBB10EHA7A6+82o6Guqs0M71xwMxmp8aruEbiQ0Bi+K9+dmuWM9r7oaF32NPX2x8TJgb7zrKmxyvXIweEuoT3E/43qs2q7/sTYlhBBCCCGEEEIIIYQQQgghhBBCCH6KrwW4QSLenYCsAAAAAElFTkSuQmCC;" vertex="1" parent="1">
          <mxGeometry x="-190" y="262.5" width="100" height="100" as="geometry" />
        </mxCell>
        <mxCell id="giXjE-jGlY2pUmAAoUkI-43" value="&lt;span style=&quot;font-size: 13px;&quot;&gt;&lt;b style=&quot;font-size: 13px;&quot;&gt;Fiber - Terrestrial backhaul&lt;/b&gt;&lt;/span&gt;" style="text;html=1;strokeColor=none;fillColor=none;align=center;verticalAlign=middle;whiteSpace=wrap;rounded=0;fontFamily=Verdana;fontSize=13;" vertex="1" parent="1">
          <mxGeometry x="365" y="450" width="290" height="30" as="geometry" />
        </mxCell>
        <mxCell id="giXjE-jGlY2pUmAAoUkI-47" value="" style="endArrow=classic;html=1;rounded=0;jumpSize=8;strokeWidth=3;" edge="1" parent="1">
          <mxGeometry width="50" height="50" relative="1" as="geometry">
            <mxPoint y="120" as="sourcePoint" />
            <mxPoint y="-376.5" as="targetPoint" />
          </mxGeometry>
        </mxCell>
        <mxCell id="giXjE-jGlY2pUmAAoUkI-51" value="&lt;span style=&quot;font-size: 15px;&quot;&gt;Altitude (Km)&lt;/span&gt;" style="text;html=1;strokeColor=none;fillColor=none;align=center;verticalAlign=middle;whiteSpace=wrap;rounded=0;fontFamily=Verdana;fontStyle=1" vertex="1" parent="1">
          <mxGeometry x="-59.25" y="-410" width="120.5" height="30" as="geometry" />
        </mxCell>
        <mxCell id="giXjE-jGlY2pUmAAoUkI-59" value="" style="endArrow=none;dashed=1;html=1;dashPattern=1 3;strokeWidth=2;rounded=0;" edge="1" parent="1" target="giXjE-jGlY2pUmAAoUkI-24">
          <mxGeometry width="50" height="50" relative="1" as="geometry">
            <mxPoint x="370" y="350" as="sourcePoint" />
            <mxPoint x="430" y="300" as="targetPoint" />
          </mxGeometry>
        </mxCell>
        <mxCell id="giXjE-jGlY2pUmAAoUkI-60" value="" style="endArrow=none;dashed=1;html=1;dashPattern=1 3;strokeWidth=2;rounded=0;entryX=0.429;entryY=0.571;entryDx=0;entryDy=0;entryPerimeter=0;" edge="1" parent="1" target="giXjE-jGlY2pUmAAoUkI-25">
          <mxGeometry width="50" height="50" relative="1" as="geometry">
            <mxPoint x="620" y="360" as="sourcePoint" />
            <mxPoint x="660" y="210" as="targetPoint" />
          </mxGeometry>
        </mxCell>
        <mxCell id="giXjE-jGlY2pUmAAoUkI-61" value="" style="endArrow=none;dashed=1;html=1;dashPattern=1 3;strokeWidth=2;rounded=0;entryX=0.131;entryY=1.06;entryDx=0;entryDy=0;entryPerimeter=0;" edge="1" parent="1" target="giXjE-jGlY2pUmAAoUkI-13">
          <mxGeometry width="50" height="50" relative="1" as="geometry">
            <mxPoint x="640" y="360" as="sourcePoint" />
            <mxPoint x="780" y="200" as="targetPoint" />
          </mxGeometry>
        </mxCell>
        <mxCell id="giXjE-jGlY2pUmAAoUkI-63" value="" style="endArrow=none;dashed=1;html=1;rounded=0;entryX=0;entryY=0.75;entryDx=0;entryDy=0;" edge="1" parent="1" source="giXjE-jGlY2pUmAAoUkI-23" target="giXjE-jGlY2pUmAAoUkI-20">
          <mxGeometry width="50" height="50" relative="1" as="geometry">
            <mxPoint x="320" y="20" as="sourcePoint" />
            <mxPoint x="370" y="-30" as="targetPoint" />
          </mxGeometry>
        </mxCell>
        <mxCell id="giXjE-jGlY2pUmAAoUkI-64" value="" style="endArrow=none;dashed=1;html=1;rounded=0;exitX=0.5;exitY=0;exitDx=0;exitDy=0;" edge="1" parent="1" source="giXjE-jGlY2pUmAAoUkI-24" target="giXjE-jGlY2pUmAAoUkI-20">
          <mxGeometry width="50" height="50" relative="1" as="geometry">
            <mxPoint x="240" y="130" as="sourcePoint" />
            <mxPoint x="290" y="80" as="targetPoint" />
          </mxGeometry>
        </mxCell>
        <mxCell id="giXjE-jGlY2pUmAAoUkI-65" value="" style="endArrow=none;dashed=1;html=1;rounded=0;exitX=0.75;exitY=0;exitDx=0;exitDy=0;" edge="1" parent="1" source="giXjE-jGlY2pUmAAoUkI-25" target="giXjE-jGlY2pUmAAoUkI-21">
          <mxGeometry width="50" height="50" relative="1" as="geometry">
            <mxPoint x="580" as="sourcePoint" />
            <mxPoint x="630" y="-50" as="targetPoint" />
          </mxGeometry>
        </mxCell>
        <mxCell id="giXjE-jGlY2pUmAAoUkI-66" value="" style="endArrow=none;dashed=1;html=1;rounded=0;strokeWidth=4;" edge="1" parent="1" target="giXjE-jGlY2pUmAAoUkI-12">
          <mxGeometry width="50" height="50" relative="1" as="geometry">
            <mxPoint x="1020" y="300" as="sourcePoint" />
            <mxPoint x="930" y="240" as="targetPoint" />
          </mxGeometry>
        </mxCell>
        <mxCell id="giXjE-jGlY2pUmAAoUkI-68" value="" style="endArrow=none;dashed=1;html=1;rounded=0;entryX=0;entryY=0.5;entryDx=0;entryDy=0;exitX=1;exitY=0.5;exitDx=0;exitDy=0;" edge="1" parent="1" source="giXjE-jGlY2pUmAAoUkI-9" target="giXjE-jGlY2pUmAAoUkI-12">
          <mxGeometry width="50" height="50" relative="1" as="geometry">
            <mxPoint x="210" y="-180" as="sourcePoint" />
            <mxPoint x="260" y="-230" as="targetPoint" />
          </mxGeometry>
        </mxCell>
        <mxCell id="giXjE-jGlY2pUmAAoUkI-69" value="" style="endArrow=none;dashed=1;html=1;rounded=0;entryX=0;entryY=0.25;entryDx=0;entryDy=0;" edge="1" parent="1" source="giXjE-jGlY2pUmAAoUkI-12" target="giXjE-jGlY2pUmAAoUkI-13">
          <mxGeometry width="50" height="50" relative="1" as="geometry">
            <mxPoint x="670" y="-250" as="sourcePoint" />
            <mxPoint x="720" y="-300" as="targetPoint" />
          </mxGeometry>
        </mxCell>
        <mxCell id="giXjE-jGlY2pUmAAoUkI-74" value="" style="endArrow=none;dashed=1;html=1;dashPattern=1 3;strokeWidth=2;rounded=0;" edge="1" parent="1" source="giXjE-jGlY2pUmAAoUkI-28" target="giXjE-jGlY2pUmAAoUkI-23">
          <mxGeometry width="50" height="50" relative="1" as="geometry">
            <mxPoint x="200.5" y="332" as="sourcePoint" />
            <mxPoint x="160" y="93" as="targetPoint" />
          </mxGeometry>
        </mxCell>
        <mxCell id="giXjE-jGlY2pUmAAoUkI-76" value="" style="endArrow=none;dashed=1;html=1;dashPattern=1 3;strokeWidth=2;rounded=0;" edge="1" parent="1">
          <mxGeometry width="50" height="50" relative="1" as="geometry">
            <mxPoint x="30" y="340" as="sourcePoint" />
            <mxPoint x="350" y="370" as="targetPoint" />
          </mxGeometry>
        </mxCell>
        <mxCell id="giXjE-jGlY2pUmAAoUkI-77" value="" style="endArrow=none;dashed=1;html=1;rounded=0;entryX=0;entryY=0.25;entryDx=0;entryDy=0;" edge="1" parent="1" target="giXjE-jGlY2pUmAAoUkI-18">
          <mxGeometry width="50" height="50" relative="1" as="geometry">
            <mxPoint x="650" y="370" as="sourcePoint" />
            <mxPoint x="750" y="250" as="targetPoint" />
          </mxGeometry>
        </mxCell>
        <mxCell id="giXjE-jGlY2pUmAAoUkI-78" value="" style="endArrow=classic;startArrow=classic;html=1;rounded=0;exitX=0.5;exitY=1;exitDx=0;exitDy=0;entryX=0.75;entryY=1;entryDx=0;entryDy=0;" edge="1" parent="1" source="giXjE-jGlY2pUmAAoUkI-39" target="giXjE-jGlY2pUmAAoUkI-16">
          <mxGeometry width="50" height="50" relative="1" as="geometry">
            <mxPoint x="-80" y="510" as="sourcePoint" />
            <mxPoint x="-30" y="460" as="targetPoint" />
            <Array as="points">
              <mxPoint x="-162" y="450" />
              <mxPoint x="480" y="450" />
              <mxPoint x="1105" y="450" />
            </Array>
          </mxGeometry>
        </mxCell>
        <mxCell id="giXjE-jGlY2pUmAAoUkI-79" value="" style="endArrow=classic;html=1;rounded=0;entryX=0.5;entryY=1;entryDx=0;entryDy=0;" edge="1" parent="1" target="giXjE-jGlY2pUmAAoUkI-28">
          <mxGeometry width="50" height="50" relative="1" as="geometry">
            <mxPoint x="-10" y="450" as="sourcePoint" />
            <mxPoint x="40" y="400" as="targetPoint" />
          </mxGeometry>
        </mxCell>
        <mxCell id="giXjE-jGlY2pUmAAoUkI-80" value="" style="endArrow=classic;html=1;rounded=0;entryX=0.5;entryY=1;entryDx=0;entryDy=0;" edge="1" parent="1" target="giXjE-jGlY2pUmAAoUkI-18">
          <mxGeometry width="50" height="50" relative="1" as="geometry">
            <mxPoint x="890" y="450" as="sourcePoint" />
            <mxPoint x="500" y="270" as="targetPoint" />
          </mxGeometry>
        </mxCell>
        <mxCell id="giXjE-jGlY2pUmAAoUkI-82" value="" style="endArrow=none;dashed=1;html=1;dashPattern=1 3;strokeWidth=2;rounded=0;entryX=-0.083;entryY=0.379;entryDx=0;entryDy=0;entryPerimeter=0;exitX=1;exitY=0.5;exitDx=0;exitDy=0;" edge="1" parent="1" source="giXjE-jGlY2pUmAAoUkI-20" target="giXjE-jGlY2pUmAAoUkI-21">
          <mxGeometry width="50" height="50" relative="1" as="geometry">
            <mxPoint x="450" y="-60" as="sourcePoint" />
            <mxPoint x="500" y="-110" as="targetPoint" />
          </mxGeometry>
        </mxCell>
        <mxCell id="giXjE-jGlY2pUmAAoUkI-83" value="" style="endArrow=none;dashed=1;html=1;dashPattern=1 3;strokeWidth=2;rounded=0;entryX=0.5;entryY=1;entryDx=0;entryDy=0;" edge="1" parent="1" target="giXjE-jGlY2pUmAAoUkI-12">
          <mxGeometry width="50" height="50" relative="1" as="geometry">
            <mxPoint x="580" y="-100" as="sourcePoint" />
            <mxPoint x="490" y="-160" as="targetPoint" />
          </mxGeometry>
        </mxCell>
        <mxCell id="giXjE-jGlY2pUmAAoUkI-84" value="" style="endArrow=none;dashed=1;html=1;dashPattern=1 3;strokeWidth=2;rounded=0;exitX=0.75;exitY=0;exitDx=0;exitDy=0;" edge="1" parent="1" source="giXjE-jGlY2pUmAAoUkI-20" target="giXjE-jGlY2pUmAAoUkI-12">
          <mxGeometry width="50" height="50" relative="1" as="geometry">
            <mxPoint x="470" y="-140" as="sourcePoint" />
            <mxPoint x="520" y="-190" as="targetPoint" />
          </mxGeometry>
        </mxCell>
        <mxCell id="giXjE-jGlY2pUmAAoUkI-85" value="" style="endArrow=none;dashed=1;html=1;rounded=0;entryX=1;entryY=0.75;entryDx=0;entryDy=0;" edge="1" parent="1" source="giXjE-jGlY2pUmAAoUkI-20" target="giXjE-jGlY2pUmAAoUkI-9">
          <mxGeometry width="50" height="50" relative="1" as="geometry">
            <mxPoint x="370" y="-120" as="sourcePoint" />
            <mxPoint x="420" y="-170" as="targetPoint" />
          </mxGeometry>
        </mxCell>
        <mxCell id="giXjE-jGlY2pUmAAoUkI-88" value="&lt;b&gt;backhaul link&lt;/b&gt;" style="text;html=1;strokeColor=none;fillColor=none;align=center;verticalAlign=middle;whiteSpace=wrap;rounded=0;fontFamily=Verdana;fontSize=11;" vertex="1" parent="1">
          <mxGeometry x="890" y="110" width="60" height="30" as="geometry" />
        </mxCell>
        <mxCell id="giXjE-jGlY2pUmAAoUkI-90" value="&lt;b&gt;gNB&lt;/b&gt;" style="text;html=1;strokeColor=none;fillColor=none;align=center;verticalAlign=middle;whiteSpace=wrap;rounded=0;fontFamily=Verdana;fontSize=11;" vertex="1" parent="1">
          <mxGeometry x="9.5" y="380" width="60" height="30" as="geometry" />
        </mxCell>
        <mxCell id="giXjE-jGlY2pUmAAoUkI-93" value="&lt;b&gt;GNSS signal&lt;/b&gt;" style="text;html=1;strokeColor=none;fillColor=none;align=center;verticalAlign=middle;whiteSpace=wrap;rounded=0;fontFamily=Verdana;fontSize=11;" vertex="1" parent="1">
          <mxGeometry x="690" y="297.5" width="60" height="30" as="geometry" />
        </mxCell>
        <mxCell id="giXjE-jGlY2pUmAAoUkI-95" value="&lt;b&gt;5G signal&lt;/b&gt;" style="text;html=1;strokeColor=none;fillColor=none;align=center;verticalAlign=middle;whiteSpace=wrap;rounded=0;fontFamily=Verdana;fontSize=11;" vertex="1" parent="1">
          <mxGeometry x="339" y="210" width="45" height="30" as="geometry" />
        </mxCell>
        <mxCell id="giXjE-jGlY2pUmAAoUkI-97" value="&lt;b&gt;5G signal&lt;/b&gt;" style="text;html=1;strokeColor=none;fillColor=none;align=center;verticalAlign=middle;whiteSpace=wrap;rounded=0;fontFamily=Verdana;fontSize=11;" vertex="1" parent="1">
          <mxGeometry x="730" y="362.5" width="45" height="30" as="geometry" />
        </mxCell>
        <mxCell id="giXjE-jGlY2pUmAAoUkI-98" value="&lt;b&gt;5G backhaul link&lt;/b&gt;" style="text;html=1;strokeColor=none;fillColor=none;align=center;verticalAlign=middle;whiteSpace=wrap;rounded=0;fontFamily=Verdana;fontSize=11;" vertex="1" parent="1">
          <mxGeometry x="120" y="190" width="60" height="30" as="geometry" />
        </mxCell>
        <mxCell id="giXjE-jGlY2pUmAAoUkI-99" value="&lt;b&gt;5G signal&lt;/b&gt;" style="text;html=1;strokeColor=none;fillColor=none;align=center;verticalAlign=middle;whiteSpace=wrap;rounded=0;fontFamily=Verdana;fontSize=11;" vertex="1" parent="1">
          <mxGeometry x="552.5" y="210" width="45" height="30" as="geometry" />
        </mxCell>
        <mxCell id="giXjE-jGlY2pUmAAoUkI-100" value="&lt;b style=&quot;font-size: 13px;&quot;&gt;Non-Terrestrial Backhaul&amp;nbsp;&lt;/b&gt;" style="text;html=1;strokeColor=none;fillColor=none;align=center;verticalAlign=middle;whiteSpace=wrap;rounded=0;fontFamily=Verdana;fontSize=13;" vertex="1" parent="1">
          <mxGeometry x="428" y="-350" width="230" height="30" as="geometry" />
        </mxCell>
        <mxCell id="giXjE-jGlY2pUmAAoUkI-104" value="&lt;b style=&quot;font-size: 11px;&quot;&gt;&lt;font style=&quot;font-size: 11px;&quot;&gt;EDGE&lt;/font&gt;&lt;/b&gt;" style="text;html=1;strokeColor=none;fillColor=none;align=center;verticalAlign=middle;whiteSpace=wrap;rounded=0;fontFamily=Verdana;fontSize=11;" vertex="1" parent="1">
          <mxGeometry x="900" y="410" width="60" height="30" as="geometry" />
        </mxCell>
        <mxCell id="giXjE-jGlY2pUmAAoUkI-105" value="" style="group" vertex="1" connectable="0" parent="1">
          <mxGeometry x="-150" y="-241.5" width="229.5" height="30" as="geometry" />
        </mxCell>
        <mxCell id="giXjE-jGlY2pUmAAoUkI-44" value="&lt;span style=&quot;font-size: 16px;&quot;&gt;&lt;b&gt;GEO&lt;/b&gt;&lt;/span&gt;" style="text;html=1;strokeColor=none;fillColor=none;align=center;verticalAlign=middle;whiteSpace=wrap;rounded=0;fontFamily=Verdana;" vertex="1" parent="giXjE-jGlY2pUmAAoUkI-105">
          <mxGeometry x="169.5" width="60" height="30" as="geometry" />
        </mxCell>
        <mxCell id="giXjE-jGlY2pUmAAoUkI-50" value="&lt;font style=&quot;font-size: 15px;&quot;&gt;35.000&lt;/font&gt;" style="text;html=1;strokeColor=none;fillColor=none;align=right;verticalAlign=middle;whiteSpace=wrap;rounded=0;fontFamily=Verdana;" vertex="1" parent="giXjE-jGlY2pUmAAoUkI-105">
          <mxGeometry width="130.5" height="30" as="geometry" />
        </mxCell>
        <mxCell id="giXjE-jGlY2pUmAAoUkI-106" value="" style="group" vertex="1" connectable="0" parent="1">
          <mxGeometry x="120" y="-270" width="110" height="93.5" as="geometry" />
        </mxCell>
        <mxCell id="giXjE-jGlY2pUmAAoUkI-9" value="" style="shape=image;verticalLabelPosition=bottom;labelBackgroundColor=default;verticalAlign=top;aspect=fixed;imageAspect=0;image=data:image/png,iVBORw0KGgoAAAANSUhEUgAAAFoAAABaCAYAAAA4qEECAAAACXBIWXMAAAsTAAALEwEAmpwYAAAEU0lEQVR4nO2cTahWRRiAnxsiBG0qLMmVEZEaUWEILVKoTWTbxDaGq342YUQtvN5zNyKSJmpYBPbnQmpbihRtLkjUtiKIyn5MBfWq1+vNrjoyMB+YnTnfd+bnnJlz3gdmc++cOXOfO9/MO/PNDAiCIAiCIOTOMuBT4CxwCZgC1rZdqa7xJDADqJvSNWC87cp1hSeAiyWS1Q1pW9uV7INkJbKbk6xEdnOSlciuP/BdcpSsTCoc/8G9YbkluhDZgfkskGQlLbua6cCilXQj5cxFEK1E9v+ZiiRaiez/stZMq1OW/TDwCXAc+Bf4C/gQeJDMGI8oWnnKfg24Yil3HniFzHgjsuxtDnUqRix7M5mRkuyiZtnZya77B6qaaU3EOrxJZsRq2RMN/KM39132RIOfpt7Knmihy8pOdtFAaFdE6qqyC/2KDCUP4uwVZEaRmeRB+oAMKQJKnmxAsk5/kClFRpJ1ukzGFJlI1ulPMqfIQLJOH9EBisQl61W/h+gIqxOVrNMmesRkS5JHmY12hkmRHJ/XRXJ8HgGuSncRnwMiuRmOy8CX96Yc1ffo4maOieRmeF9acnOnuf6JKHsLPWMlsB04Cpwyx+T0atlXwA8iOczm9a9bCOG2BFp7yYLnI3cLPpLrrCYmz97EJauuyB4D9iQuuTOHTscaku0jWWTTnOROyX7HoaV+XzGg6q+fXm1pn0nnZH8JPAC8B/xqzjn+Buwf8bhEzJ1Tneqzj3m8y3d3U6+6kWnHd4TaQhatZd8SOX9d2X9Tn9D79ILKvtVMMM6ZtMf8LFR+V9n6bGMdYm2GDCZ7V0nhOwPmd5W9ldFZE0lyUNknSwo+ETC/q2x9QLMOReqyL1sKXmjJf8GS/7aAso84lpW07NOWQu+05P/Jkv8xjzrcKFtfvnK/R1mxZTvffvazpUC976KMLyz5d+LHmBlk1+FPbNnPulTqsKWw9Zb8L1vyzyV2FiSm7LoRkTWKUOajXMYSc8Cm7JnfE7tNIJbsWZfKrLMUprsUG/sqKjEHvA2s8hggU5d9xqUid1XcxaFllbHYTFZGnUrvdZjUpCz7oGtFvrEU+HHFM09X3JGhStK7tEso2TNmVdEJ2wCn++L7Kp57sYbsWY/1kVRk69DzKZ8K3FFxr50O5xjSss9lItpHtrfkAW9VvGTDkGcXmwFyvqIM/ftUKNqSPJBlm15fHHHt4R7gJeBz4EfzKdE7k3a3PBj6yA4qecCmiheeGNJf50jRhmTNAuC7IbJtU/NcGbeEtzOxJA+4d8jgpge1jXTvXr8p04LPmDjZOYSrwzNDBjZl1kh8VtkEwwsj3N44bw79PC7W/GUPa9mD9IsJ4fRO0kfNerbtywPB0o34XGs8ncBaRzYsBb71kK0SWOvIhgVmv9t5R9GziUzBs+FucybFNotUIjost5vp9tER75beF/j9vWQR8BywAzhkvik/bbYypLrWIQiCIAiCQL5cB0VrOkREZnNaAAAAAElFTkSuQmCC;" vertex="1" parent="giXjE-jGlY2pUmAAoUkI-106">
          <mxGeometry y="1.75" width="90" height="90" as="geometry" />
        </mxCell>
        <mxCell id="giXjE-jGlY2pUmAAoUkI-107" value="" style="group" vertex="1" connectable="0" parent="1">
          <mxGeometry x="860" y="-276.5" width="140" height="90" as="geometry" />
        </mxCell>
        <mxCell id="giXjE-jGlY2pUmAAoUkI-13" value="" style="shape=image;verticalLabelPosition=bottom;labelBackgroundColor=default;verticalAlign=top;aspect=fixed;imageAspect=0;image=data:image/png,iVBORw0KGgoAAAANSUhEUgAAAFoAAABaCAYAAAA4qEECAAAACXBIWXMAAAsTAAALEwEAmpwYAAAEU0lEQVR4nO2cTahWRRiAnxsiBG0qLMmVEZEaUWEILVKoTWTbxDaGq342YUQtvN5zNyKSJmpYBPbnQmpbihRtLkjUtiKIyn5MBfWq1+vNrjoyMB+YnTnfd+bnnJlz3gdmc++cOXOfO9/MO/PNDAiCIAiCIOTOMuBT4CxwCZgC1rZdqa7xJDADqJvSNWC87cp1hSeAiyWS1Q1pW9uV7INkJbKbk6xEdnOSlciuP/BdcpSsTCoc/8G9YbkluhDZgfkskGQlLbua6cCilXQj5cxFEK1E9v+ZiiRaiez/stZMq1OW/TDwCXAc+Bf4C/gQeJDMGI8oWnnKfg24Yil3HniFzHgjsuxtDnUqRix7M5mRkuyiZtnZya77B6qaaU3EOrxJZsRq2RMN/KM39132RIOfpt7Knmihy8pOdtFAaFdE6qqyC/2KDCUP4uwVZEaRmeRB+oAMKQJKnmxAsk5/kClFRpJ1ukzGFJlI1ulPMqfIQLJOH9EBisQl61W/h+gIqxOVrNMmesRkS5JHmY12hkmRHJ/XRXJ8HgGuSncRnwMiuRmOy8CX96Yc1ffo4maOieRmeF9acnOnuf6JKHsLPWMlsB04Cpwyx+T0atlXwA8iOczm9a9bCOG2BFp7yYLnI3cLPpLrrCYmz97EJauuyB4D9iQuuTOHTscaku0jWWTTnOROyX7HoaV+XzGg6q+fXm1pn0nnZH8JPAC8B/xqzjn+Buwf8bhEzJ1Tneqzj3m8y3d3U6+6kWnHd4TaQhatZd8SOX9d2X9Tn9D79ILKvtVMMM6ZtMf8LFR+V9n6bGMdYm2GDCZ7V0nhOwPmd5W9ldFZE0lyUNknSwo+ETC/q2x9QLMOReqyL1sKXmjJf8GS/7aAso84lpW07NOWQu+05P/Jkv8xjzrcKFtfvnK/R1mxZTvffvazpUC976KMLyz5d+LHmBlk1+FPbNnPulTqsKWw9Zb8L1vyzyV2FiSm7LoRkTWKUOajXMYSc8Cm7JnfE7tNIJbsWZfKrLMUprsUG/sqKjEHvA2s8hggU5d9xqUid1XcxaFllbHYTFZGnUrvdZjUpCz7oGtFvrEU+HHFM09X3JGhStK7tEso2TNmVdEJ2wCn++L7Kp57sYbsWY/1kVRk69DzKZ8K3FFxr50O5xjSss9lItpHtrfkAW9VvGTDkGcXmwFyvqIM/ftUKNqSPJBlm15fHHHt4R7gJeBz4EfzKdE7k3a3PBj6yA4qecCmiheeGNJf50jRhmTNAuC7IbJtU/NcGbeEtzOxJA+4d8jgpge1jXTvXr8p04LPmDjZOYSrwzNDBjZl1kh8VtkEwwsj3N44bw79PC7W/GUPa9mD9IsJ4fRO0kfNerbtywPB0o34XGs8ncBaRzYsBb71kK0SWOvIhgVmv9t5R9GziUzBs+FucybFNotUIjost5vp9tER75beF/j9vWQR8BywAzhkvik/bbYypLrWIQiCIAiCQL5cB0VrOkREZnNaAAAAAElFTkSuQmCC;" vertex="1" parent="giXjE-jGlY2pUmAAoUkI-107">
          <mxGeometry width="90" height="90" as="geometry" />
        </mxCell>
        <mxCell id="giXjE-jGlY2pUmAAoUkI-62" value="&lt;b style=&quot;font-size: 11px;&quot;&gt;&lt;font style=&quot;font-size: 11px;&quot;&gt;GNSS&lt;/font&gt;&lt;/b&gt;" style="text;html=1;strokeColor=none;fillColor=none;align=center;verticalAlign=middle;whiteSpace=wrap;rounded=0;fontFamily=Verdana;fontSize=11;" vertex="1" parent="giXjE-jGlY2pUmAAoUkI-107">
          <mxGeometry x="70" y="20" width="60" height="30" as="geometry" />
        </mxCell>
        <mxCell id="giXjE-jGlY2pUmAAoUkI-108" value="" style="group" vertex="1" connectable="0" parent="1">
          <mxGeometry x="130.5" y="40" width="99.5" height="70" as="geometry" />
        </mxCell>
        <mxCell id="giXjE-jGlY2pUmAAoUkI-23" value="" style="shape=image;verticalLabelPosition=bottom;labelBackgroundColor=default;verticalAlign=top;aspect=fixed;imageAspect=0;image=data:image/png,iVBORw0KGgoAAAANSUhEUgAAAFoAAABaCAYAAAA4qEECAAAACXBIWXMAAAsTAAALEwEAmpwYAAACwklEQVR4nO2cTWtUMRSGn/4Z8QtRcK0FXda14F9wI4rootPJbKS4tV2I4Ae6EP0ForhwwF+gWy1qBRe1i2r9NhK4YB07w9w7Se5N8j5wtknmmfTcM+nJBSGEEEIIIYQohH3AA+AjsA0MgYW2F5UbJ4AtwI7Eb6DX9uJy4RjwaRfJO2O57UWWINlKdjzJVrLjSbaSXf/Bt91Qsq3CNPyCi2H/mOpCsj3z0JNkq509mU3Poq3SyO58CSDaSvb/DAOJtpL9LwvVz+ouyz4M3AXWge/AO+A2cJDE6AUUbWeUfQH4OWbcH8BZEuNSYNnLDdZkphx7kcTokmxTc+zkZNf9gLZmzAdcw2USI9TO7kf4ohdLl92P+NdUrOx+CykrOdkmQmlnAqWq5Eo/k6BkW9XZB0gMk5hkW8UtEsR4lDyIINnFGxLFJCTZxTcSxiQi2cVbEsckINnFHTLAdFyyO/U7RCYc76hkF+cpiEFLkqf5NZoNA0kOz0VJDs8R4JfSRXjuSXIc1vXgS7spx5ZeXYyyJslxuKGdHO8219eAspcojKPAVeA58KG6JudOy54ALyXZT/P60xZKuCVPZy9JcCZwWphFcp3TxM6z0nHJNhfZc8C1jkvO5tLpXCTZs0iWbOJJzkr2aoOd+mLCA9X9++lcS30m2cl+DOwFrgOvqnuOr4GbU16XCNk5lVXOXpthrlm7m4pKI5sN5/DVQmZKkf2+wdi++/SKSCPPao4Zqhky+zRypcZY84EkZ7WzV8d8OHdBsw6h23uzlP2o4ViSXUO2e/nKHpoTWnYvB9krwGkPY4WWfcrDGrPBBBTt3vYgIsj+vHMSEU72RjW2CCz7/ugEwr/srepUUQSU7UrPk5MmELPfXZfkCLIlOYJsSY4gW5I90hvzqjlXXejBF+C9fsNqB29UdbJKOCGEEEIIIYQQQgj+8gfahum7ZibVvwAAAABJRU5ErkJggg==;" vertex="1" parent="giXjE-jGlY2pUmAAoUkI-108">
          <mxGeometry x="29.5" width="70" height="70" as="geometry" />
        </mxCell>
        <mxCell id="giXjE-jGlY2pUmAAoUkI-36" value="" style="shape=image;verticalLabelPosition=bottom;labelBackgroundColor=default;verticalAlign=top;aspect=fixed;imageAspect=0;image=data:image/png,iVBORw0KGgoAAAANSUhEUgAAAFoAAABaCAYAAAA4qEECAAAACXBIWXMAAAsTAAALEwEAmpwYAAAHdklEQVR4nO2daYwURRSAv4Vld0FgPRZMPDgEBBU1AsEIKjHiQTxAjYIaJSpijKLrQRRvERGPYFAiokYEVBDEEDaoq4iCJwYEBExEiKACSuRwQWBBd0yZt8lk0l1d3dM9XT30l9Sf2a6uV6+7q169eq8WUlJSUlJSUlIOVtoC/YFq4DVgAbAU+AnYCuyTslV+WyrXvCp1zpV7pORwGDAYmA78DmRCKlvknureh3KQ0hq4HfgMOBCict2KauNT4DagFQcBXYBxwPYCKNet1AGTge4UIT2AD4GGGBWcW5QsHwCnUQQcJW/PPxYoVqfwWUB7EkgZ8Bjwd4CO1wMrgDeB+4CLgZ5AZ6ANUC6lrfym/nYJcD/wltTdH6Dd3cAjInsi6Aos89nJrcA04EqZKPOlhZiIE4DffMqizMXjsZxh8maYdGg/MBM4CyiJUCZ177OBd3y86buAG7GQClGaSSe2AaNl/C40R0vbplbPDOmbFajFwCLDN3iyjLM2LJLGyQrTS+6vgCPiFli9IasMhJ0nNrRtqLG4xkD+72P6Av9HzfgbDWbyYdjPcAMLaQPQqdCCVQE/egi2KmGrr24G1tJ64MhCCXQIsMRDoJli6yaNclm86Pq2RMzHSCk1GNOU7dokz3aaAL2AW4FJ4nxa5+AmXSd/e0mu7RWCqajaftGjjzWii8gY7SGAWp3l08EBwJQ83aWq7uvAhXk+8Ac82nmcCNmiaVg9hCC0BO4WJ34m5LIWuEuGuyCM0dx7ExGyzaXRKQE+2abAzcDmCBScW1QbN0mbflB9esPlnn8SIS87NKjcn8183udkYGUBFJxblgewhJpJH3PvpeaOyFCz7dSsCWmqzxm4BLgD2BuDkhvLXtnd8fMFthCnV730W73lzSkAFQHMtzJxY5oqRHXqY+AhYJDYuVVZbtIq+e0yuWaB1DG9//QAX2KFTb4PJ1oBHxkq4GvgOpkkg7RzPfCNYVu1AduxkubAF4bOmz4htnumPDSvdhfb/paaoOzYOR4d3QFcG5FPukS+jp0eMrwbwiIrVsYYDBPtCyBHRwO3wRMkFDVe7tF0bG6hZu4sy2GeRp49SR2vO2o69XaAxUMYlMqWlptcidwJV+Pjzw6dWRizZ69copacXKBR7l1Gyuk5S+xaoDJuoUSGbHNTydibhNNCdrrVsjvoTs4oUcymrFXpJvltlFwThFNEtkLOFdbRTSbMfw1sYXXNexJTkuKDasMd6tyyT3wpKR6UiFcsk2eZmOSJrRCMDUHJjeXJuDtjc2hvQ4iKbiiWkNywuccjeHyMKK6llB7y2y5NPbWNlZLD1S7KUjsx7XCnvUQSOdUdoql30FIusc3ZilpjmGGlrvnBYdsqMbHOcazYHpUgltESjGjK4VJnltzDhhVoSkpKSkpKShS0FishjFIZgjwdJAj+FdlsWC7Rp0skkXOShCaonaBEEWaQ4oaAMpRIsM1in8t5Ffp7VVJ2wnfGrOjOhklLuvIlcAIWUxGikjMBFH2+xIeEFZt3KZZybIyKPi/gJoFXqt4VWEjPmBTdxceb3CCJnKaRrHVxZGF5McBF2OcktWy4z3KNQZtq4vrcQ1nbJfm/e07kqPL43QKs9qivJlWrGOoiaNCdbxMGeyip1iBVrVRCwXQWisojt4Z7XYSMMidvpYe51jykGMHZWMQzLiEAUYV99fLI1tVtFLi92Wtc7rfDJvvaKaHmjwjbe1CjaLXBG4QbZEx3KidiCe+7pChn006SLsfKKQfjZcjpHeCNqdVYFjYm94fGUodOfyJ/6yS+Bd2Es1kCX8oMP/M6l/uo7ayi5heXQ0X6+jiRJiObrO3zWBypBKCixmkRsFyTAJrxSDHWedRO1dR9mCJ3j2ZCLt9pEnjO0dQzibsbKKfP+CnqFLLY6WxwXGUNMEKcNZfLam2tRz0V6OjEIE0dlYbsxcQAD/55LKCPRsDVmpTgUjkhQDdBOiVc9tfUubOYFe32hm00PKhqgqaD/Ryu76G5XsVzFK2iy1y2o0yXwJXAXz5S0jp4JCFFoWjlHCsK5rh0UB2b6RQ65uZ/VuO+F301XkO3w7hU+kZR8JRLB1WOihNu7tGGPNMrnNYDmYScdGaEWwB6jc/rVXk6oAxVmnyZC7CAZyWwMLf48UXPdumgOrcfn5bH7oCJmdUu96u3JaN2fp5etErNDvpIlzpNNZ95kKTRYzSrWLWzbvX4WmfoSXtBo7CTAryBjWW+4T9R6OQQW23l+KzzPai37gyNWej2kBoXOzoqDIJ2tohrVo2/uRwnCUW61Iz1AU6piZSFGmEb5BiekbLPN1TsUt2nnzGMrehn+F8vDojpt0gOYDE9vFsdHG4VXUM+kGquj7ZHhNhuIhYpAwOerZ/JKcsCHAhYbZjKbFqmxXTMhTEXyV5h0A7OziOSVNm6v+ap4Hr5QhJBWwmV9TOUrJb0t3xpKUez+X3Y+ySMV/lREkcbmfFniHVQlzUxKWvgW1nF9Y9gO7+ZHAI7Xk4oyz5Tdb+4YFfICzHEkuPwQ6Us5vYTf+xaSkpKSkoKSeU/O0kRKfQr9LMAAAAASUVORK5CYII=;" vertex="1" parent="giXjE-jGlY2pUmAAoUkI-108">
          <mxGeometry y="15.5" width="39" height="39" as="geometry" />
        </mxCell>
        <mxCell id="giXjE-jGlY2pUmAAoUkI-109" value="" style="group" vertex="1" connectable="0" parent="1">
          <mxGeometry x="388" y="40" width="90" height="70" as="geometry" />
        </mxCell>
        <mxCell id="giXjE-jGlY2pUmAAoUkI-24" value="" style="shape=image;verticalLabelPosition=bottom;labelBackgroundColor=default;verticalAlign=top;aspect=fixed;imageAspect=0;image=data:image/png,iVBORw0KGgoAAAANSUhEUgAAAFoAAABaCAYAAAA4qEECAAAACXBIWXMAAAsTAAALEwEAmpwYAAACwklEQVR4nO2cTWtUMRSGn/4Z8QtRcK0FXda14F9wI4rootPJbKS4tV2I4Ae6EP0ForhwwF+gWy1qBRe1i2r9NhK4YB07w9w7Se5N8j5wtknmmfTcM+nJBSGEEEIIIYQohH3AA+AjsA0MgYW2F5UbJ4AtwI7Eb6DX9uJy4RjwaRfJO2O57UWWINlKdjzJVrLjSbaSXf/Bt91Qsq3CNPyCi2H/mOpCsj3z0JNkq509mU3Poq3SyO58CSDaSvb/DAOJtpL9LwvVz+ouyz4M3AXWge/AO+A2cJDE6AUUbWeUfQH4OWbcH8BZEuNSYNnLDdZkphx7kcTokmxTc+zkZNf9gLZmzAdcw2USI9TO7kf4ohdLl92P+NdUrOx+CykrOdkmQmlnAqWq5Eo/k6BkW9XZB0gMk5hkW8UtEsR4lDyIINnFGxLFJCTZxTcSxiQi2cVbEsckINnFHTLAdFyyO/U7RCYc76hkF+cpiEFLkqf5NZoNA0kOz0VJDs8R4JfSRXjuSXIc1vXgS7spx5ZeXYyyJslxuKGdHO8219eAspcojKPAVeA58KG6JudOy54ALyXZT/P60xZKuCVPZy9JcCZwWphFcp3TxM6z0nHJNhfZc8C1jkvO5tLpXCTZs0iWbOJJzkr2aoOd+mLCA9X9++lcS30m2cl+DOwFrgOvqnuOr4GbU16XCNk5lVXOXpthrlm7m4pKI5sN5/DVQmZKkf2+wdi++/SKSCPPao4Zqhky+zRypcZY84EkZ7WzV8d8OHdBsw6h23uzlP2o4ViSXUO2e/nKHpoTWnYvB9krwGkPY4WWfcrDGrPBBBTt3vYgIsj+vHMSEU72RjW2CCz7/ugEwr/srepUUQSU7UrPk5MmELPfXZfkCLIlOYJsSY4gW5I90hvzqjlXXejBF+C9fsNqB29UdbJKOCGEEEIIIYQQQgj+8gfahum7ZibVvwAAAABJRU5ErkJggg==;" vertex="1" parent="giXjE-jGlY2pUmAAoUkI-109">
          <mxGeometry width="70" height="70" as="geometry" />
        </mxCell>
        <mxCell id="giXjE-jGlY2pUmAAoUkI-32" value="" style="shape=image;verticalLabelPosition=bottom;labelBackgroundColor=default;verticalAlign=top;aspect=fixed;imageAspect=0;image=data:image/png,iVBORw0KGgoAAAANSUhEUgAAAFoAAABaCAYAAAA4qEECAAAACXBIWXMAAAsTAAALEwEAmpwYAAAHdklEQVR4nO2daYwURRSAv4Vld0FgPRZMPDgEBBU1AsEIKjHiQTxAjYIaJSpijKLrQRRvERGPYFAiokYEVBDEEDaoq4iCJwYEBExEiKACSuRwQWBBd0yZt8lk0l1d3dM9XT30l9Sf2a6uV6+7q169eq8WUlJSUlJSUlIOVtoC/YFq4DVgAbAU+AnYCuyTslV+WyrXvCp1zpV7pORwGDAYmA78DmRCKlvknureh3KQ0hq4HfgMOBCict2KauNT4DagFQcBXYBxwPYCKNet1AGTge4UIT2AD4GGGBWcW5QsHwCnUQQcJW/PPxYoVqfwWUB7EkgZ8Bjwd4CO1wMrgDeB+4CLgZ5AZ6ANUC6lrfym/nYJcD/wltTdH6Dd3cAjInsi6Aos89nJrcA04EqZKPOlhZiIE4DffMqizMXjsZxh8maYdGg/MBM4CyiJUCZ177OBd3y86buAG7GQClGaSSe2AaNl/C40R0vbplbPDOmbFajFwCLDN3iyjLM2LJLGyQrTS+6vgCPiFli9IasMhJ0nNrRtqLG4xkD+72P6Av9HzfgbDWbyYdjPcAMLaQPQqdCCVQE/egi2KmGrr24G1tJ64MhCCXQIsMRDoJli6yaNclm86Pq2RMzHSCk1GNOU7dokz3aaAL2AW4FJ4nxa5+AmXSd/e0mu7RWCqajaftGjjzWii8gY7SGAWp3l08EBwJQ83aWq7uvAhXk+8Ac82nmcCNmiaVg9hCC0BO4WJ34m5LIWuEuGuyCM0dx7ExGyzaXRKQE+2abAzcDmCBScW1QbN0mbflB9esPlnn8SIS87NKjcn8183udkYGUBFJxblgewhJpJH3PvpeaOyFCz7dSsCWmqzxm4BLgD2BuDkhvLXtnd8fMFthCnV730W73lzSkAFQHMtzJxY5oqRHXqY+AhYJDYuVVZbtIq+e0yuWaB1DG9//QAX2KFTb4PJ1oBHxkq4GvgOpkkg7RzPfCNYVu1AduxkubAF4bOmz4htnumPDSvdhfb/paaoOzYOR4d3QFcG5FPukS+jp0eMrwbwiIrVsYYDBPtCyBHRwO3wRMkFDVe7tF0bG6hZu4sy2GeRp49SR2vO2o69XaAxUMYlMqWlptcidwJV+Pjzw6dWRizZ69copacXKBR7l1Gyuk5S+xaoDJuoUSGbHNTydibhNNCdrrVsjvoTs4oUcymrFXpJvltlFwThFNEtkLOFdbRTSbMfw1sYXXNexJTkuKDasMd6tyyT3wpKR6UiFcsk2eZmOSJrRCMDUHJjeXJuDtjc2hvQ4iKbiiWkNywuccjeHyMKK6llB7y2y5NPbWNlZLD1S7KUjsx7XCnvUQSOdUdoql30FIusc3ZilpjmGGlrvnBYdsqMbHOcazYHpUgltESjGjK4VJnltzDhhVoSkpKSkpKShS0FishjFIZgjwdJAj+FdlsWC7Rp0skkXOShCaonaBEEWaQ4oaAMpRIsM1in8t5Ffp7VVJ2wnfGrOjOhklLuvIlcAIWUxGikjMBFH2+xIeEFZt3KZZybIyKPi/gJoFXqt4VWEjPmBTdxceb3CCJnKaRrHVxZGF5McBF2OcktWy4z3KNQZtq4vrcQ1nbJfm/e07kqPL43QKs9qivJlWrGOoiaNCdbxMGeyip1iBVrVRCwXQWisojt4Z7XYSMMidvpYe51jykGMHZWMQzLiEAUYV99fLI1tVtFLi92Wtc7rfDJvvaKaHmjwjbe1CjaLXBG4QbZEx3KidiCe+7pChn006SLsfKKQfjZcjpHeCNqdVYFjYm94fGUodOfyJ/6yS+Bd2Es1kCX8oMP/M6l/uo7ayi5heXQ0X6+jiRJiObrO3zWBypBKCixmkRsFyTAJrxSDHWedRO1dR9mCJ3j2ZCLt9pEnjO0dQzibsbKKfP+CnqFLLY6WxwXGUNMEKcNZfLam2tRz0V6OjEIE0dlYbsxcQAD/55LKCPRsDVmpTgUjkhQDdBOiVc9tfUubOYFe32hm00PKhqgqaD/Ryu76G5XsVzFK2iy1y2o0yXwJXAXz5S0jp4JCFFoWjlHCsK5rh0UB2b6RQ65uZ/VuO+F301XkO3w7hU+kZR8JRLB1WOihNu7tGGPNMrnNYDmYScdGaEWwB6jc/rVXk6oAxVmnyZC7CAZyWwMLf48UXPdumgOrcfn5bH7oCJmdUu96u3JaN2fp5etErNDvpIlzpNNZ95kKTRYzSrWLWzbvX4WmfoSXtBo7CTAryBjWW+4T9R6OQQW23l+KzzPai37gyNWej2kBoXOzoqDIJ2tohrVo2/uRwnCUW61Iz1AU6piZSFGmEb5BiekbLPN1TsUt2nnzGMrehn+F8vDojpt0gOYDE9vFsdHG4VXUM+kGquj7ZHhNhuIhYpAwOerZ/JKcsCHAhYbZjKbFqmxXTMhTEXyV5h0A7OziOSVNm6v+ap4Hr5QhJBWwmV9TOUrJb0t3xpKUez+X3Y+ySMV/lREkcbmfFniHVQlzUxKWvgW1nF9Y9gO7+ZHAI7Xk4oyz5Tdb+4YFfICzHEkuPwQ6Us5vYTf+xaSkpKSkoKSeU/O0kRKfQr9LMAAAAASUVORK5CYII=;" vertex="1" parent="giXjE-jGlY2pUmAAoUkI-109">
          <mxGeometry x="51" width="39" height="39" as="geometry" />
        </mxCell>
        <mxCell id="giXjE-jGlY2pUmAAoUkI-110" value="" style="group" vertex="1" connectable="0" parent="1">
          <mxGeometry x="570" y="40" width="99" height="70" as="geometry" />
        </mxCell>
        <mxCell id="giXjE-jGlY2pUmAAoUkI-25" value="" style="shape=image;verticalLabelPosition=bottom;labelBackgroundColor=default;verticalAlign=top;aspect=fixed;imageAspect=0;image=data:image/png,iVBORw0KGgoAAAANSUhEUgAAAFoAAABaCAYAAAA4qEECAAAACXBIWXMAAAsTAAALEwEAmpwYAAACwklEQVR4nO2cTWtUMRSGn/4Z8QtRcK0FXda14F9wI4rootPJbKS4tV2I4Ae6EP0ForhwwF+gWy1qBRe1i2r9NhK4YB07w9w7Se5N8j5wtknmmfTcM+nJBSGEEEIIIYQohH3AA+AjsA0MgYW2F5UbJ4AtwI7Eb6DX9uJy4RjwaRfJO2O57UWWINlKdjzJVrLjSbaSXf/Bt91Qsq3CNPyCi2H/mOpCsj3z0JNkq509mU3Poq3SyO58CSDaSvb/DAOJtpL9LwvVz+ouyz4M3AXWge/AO+A2cJDE6AUUbWeUfQH4OWbcH8BZEuNSYNnLDdZkphx7kcTokmxTc+zkZNf9gLZmzAdcw2USI9TO7kf4ohdLl92P+NdUrOx+CykrOdkmQmlnAqWq5Eo/k6BkW9XZB0gMk5hkW8UtEsR4lDyIINnFGxLFJCTZxTcSxiQi2cVbEsckINnFHTLAdFyyO/U7RCYc76hkF+cpiEFLkqf5NZoNA0kOz0VJDs8R4JfSRXjuSXIc1vXgS7spx5ZeXYyyJslxuKGdHO8219eAspcojKPAVeA58KG6JudOy54ALyXZT/P60xZKuCVPZy9JcCZwWphFcp3TxM6z0nHJNhfZc8C1jkvO5tLpXCTZs0iWbOJJzkr2aoOd+mLCA9X9++lcS30m2cl+DOwFrgOvqnuOr4GbU16XCNk5lVXOXpthrlm7m4pKI5sN5/DVQmZKkf2+wdi++/SKSCPPao4Zqhky+zRypcZY84EkZ7WzV8d8OHdBsw6h23uzlP2o4ViSXUO2e/nKHpoTWnYvB9krwGkPY4WWfcrDGrPBBBTt3vYgIsj+vHMSEU72RjW2CCz7/ugEwr/srepUUQSU7UrPk5MmELPfXZfkCLIlOYJsSY4gW5I90hvzqjlXXejBF+C9fsNqB29UdbJKOCGEEEIIIYQQQgj+8gfahum7ZibVvwAAAABJRU5ErkJggg==;" vertex="1" parent="giXjE-jGlY2pUmAAoUkI-110">
          <mxGeometry width="70" height="70" as="geometry" />
        </mxCell>
        <mxCell id="giXjE-jGlY2pUmAAoUkI-33" value="" style="shape=image;verticalLabelPosition=bottom;labelBackgroundColor=default;verticalAlign=top;aspect=fixed;imageAspect=0;image=data:image/png,iVBORw0KGgoAAAANSUhEUgAAAFoAAABaCAYAAAA4qEECAAAACXBIWXMAAAsTAAALEwEAmpwYAAAHdklEQVR4nO2daYwURRSAv4Vld0FgPRZMPDgEBBU1AsEIKjHiQTxAjYIaJSpijKLrQRRvERGPYFAiokYEVBDEEDaoq4iCJwYEBExEiKACSuRwQWBBd0yZt8lk0l1d3dM9XT30l9Sf2a6uV6+7q169eq8WUlJSUlJSUlIOVtoC/YFq4DVgAbAU+AnYCuyTslV+WyrXvCp1zpV7pORwGDAYmA78DmRCKlvknureh3KQ0hq4HfgMOBCict2KauNT4DagFQcBXYBxwPYCKNet1AGTge4UIT2AD4GGGBWcW5QsHwCnUQQcJW/PPxYoVqfwWUB7EkgZ8Bjwd4CO1wMrgDeB+4CLgZ5AZ6ANUC6lrfym/nYJcD/wltTdH6Dd3cAjInsi6Aos89nJrcA04EqZKPOlhZiIE4DffMqizMXjsZxh8maYdGg/MBM4CyiJUCZ177OBd3y86buAG7GQClGaSSe2AaNl/C40R0vbplbPDOmbFajFwCLDN3iyjLM2LJLGyQrTS+6vgCPiFli9IasMhJ0nNrRtqLG4xkD+72P6Av9HzfgbDWbyYdjPcAMLaQPQqdCCVQE/egi2KmGrr24G1tJ64MhCCXQIsMRDoJli6yaNclm86Pq2RMzHSCk1GNOU7dokz3aaAL2AW4FJ4nxa5+AmXSd/e0mu7RWCqajaftGjjzWii8gY7SGAWp3l08EBwJQ83aWq7uvAhXk+8Ac82nmcCNmiaVg9hCC0BO4WJ34m5LIWuEuGuyCM0dx7ExGyzaXRKQE+2abAzcDmCBScW1QbN0mbflB9esPlnn8SIS87NKjcn8183udkYGUBFJxblgewhJpJH3PvpeaOyFCz7dSsCWmqzxm4BLgD2BuDkhvLXtnd8fMFthCnV730W73lzSkAFQHMtzJxY5oqRHXqY+AhYJDYuVVZbtIq+e0yuWaB1DG9//QAX2KFTb4PJ1oBHxkq4GvgOpkkg7RzPfCNYVu1AduxkubAF4bOmz4htnumPDSvdhfb/paaoOzYOR4d3QFcG5FPukS+jp0eMrwbwiIrVsYYDBPtCyBHRwO3wRMkFDVe7tF0bG6hZu4sy2GeRp49SR2vO2o69XaAxUMYlMqWlptcidwJV+Pjzw6dWRizZ69copacXKBR7l1Gyuk5S+xaoDJuoUSGbHNTydibhNNCdrrVsjvoTs4oUcymrFXpJvltlFwThFNEtkLOFdbRTSbMfw1sYXXNexJTkuKDasMd6tyyT3wpKR6UiFcsk2eZmOSJrRCMDUHJjeXJuDtjc2hvQ4iKbiiWkNywuccjeHyMKK6llB7y2y5NPbWNlZLD1S7KUjsx7XCnvUQSOdUdoql30FIusc3ZilpjmGGlrvnBYdsqMbHOcazYHpUgltESjGjK4VJnltzDhhVoSkpKSkpKShS0FishjFIZgjwdJAj+FdlsWC7Rp0skkXOShCaonaBEEWaQ4oaAMpRIsM1in8t5Ffp7VVJ2wnfGrOjOhklLuvIlcAIWUxGikjMBFH2+xIeEFZt3KZZybIyKPi/gJoFXqt4VWEjPmBTdxceb3CCJnKaRrHVxZGF5McBF2OcktWy4z3KNQZtq4vrcQ1nbJfm/e07kqPL43QKs9qivJlWrGOoiaNCdbxMGeyip1iBVrVRCwXQWisojt4Z7XYSMMidvpYe51jykGMHZWMQzLiEAUYV99fLI1tVtFLi92Wtc7rfDJvvaKaHmjwjbe1CjaLXBG4QbZEx3KidiCe+7pChn006SLsfKKQfjZcjpHeCNqdVYFjYm94fGUodOfyJ/6yS+Bd2Es1kCX8oMP/M6l/uo7ayi5heXQ0X6+jiRJiObrO3zWBypBKCixmkRsFyTAJrxSDHWedRO1dR9mCJ3j2ZCLt9pEnjO0dQzibsbKKfP+CnqFLLY6WxwXGUNMEKcNZfLam2tRz0V6OjEIE0dlYbsxcQAD/55LKCPRsDVmpTgUjkhQDdBOiVc9tfUubOYFe32hm00PKhqgqaD/Ryu76G5XsVzFK2iy1y2o0yXwJXAXz5S0jp4JCFFoWjlHCsK5rh0UB2b6RQ65uZ/VuO+F301XkO3w7hU+kZR8JRLB1WOihNu7tGGPNMrnNYDmYScdGaEWwB6jc/rVXk6oAxVmnyZC7CAZyWwMLf48UXPdumgOrcfn5bH7oCJmdUu96u3JaN2fp5etErNDvpIlzpNNZ95kKTRYzSrWLWzbvX4WmfoSXtBo7CTAryBjWW+4T9R6OQQW23l+KzzPai37gyNWej2kBoXOzoqDIJ2tohrVo2/uRwnCUW61Iz1AU6piZSFGmEb5BiekbLPN1TsUt2nnzGMrehn+F8vDojpt0gOYDE9vFsdHG4VXUM+kGquj7ZHhNhuIhYpAwOerZ/JKcsCHAhYbZjKbFqmxXTMhTEXyV5h0A7OziOSVNm6v+ap4Hr5QhJBWwmV9TOUrJb0t3xpKUez+X3Y+ySMV/lREkcbmfFniHVQlzUxKWvgW1nF9Y9gO7+ZHAI7Xk4oyz5Tdb+4YFfICzHEkuPwQ6Us5vYTf+xaSkpKSkoKSeU/O0kRKfQr9LMAAAAASUVORK5CYII=;" vertex="1" parent="giXjE-jGlY2pUmAAoUkI-110">
          <mxGeometry x="60" width="39" height="39" as="geometry" />
        </mxCell>
        <mxCell id="giXjE-jGlY2pUmAAoUkI-111" value="" style="group" vertex="1" connectable="0" parent="1">
          <mxGeometry x="839.5" y="293" width="100" height="127" as="geometry" />
        </mxCell>
        <mxCell id="giXjE-jGlY2pUmAAoUkI-18" value="" style="shape=image;verticalLabelPosition=bottom;labelBackgroundColor=default;verticalAlign=top;aspect=fixed;imageAspect=0;image=data:image/png,iVBORw0KGgoAAAANSUhEUgAAAFoAAABaCAYAAAA4qEECAAAACXBIWXMAAAsTAAALEwEAmpwYAAAGYklEQVR4nO2dWWwWVRTH/whdgGoisWgsWpcnoxa36osl7mvRJ55AFCMuLNUXYygqBomWB4PUGBQ31NiqiREXMBFfiG2oERUpEkMQRSCiFlIQZRH7mZOcL/kymf/95s43H7PdX3JfyLl3zpzOd+5Z7gyAw+FwOBwOh8PhcDgcUVIPoAvADgCbATyQIvM+CGALgG0AngFQhwTzGoCCZ8xG8pnto/erSCiTAfzno/DXSD7f+Ogt99KCBPKRj7IF/TkmnR+I7quRMK4EMEKUXYzks5joLvfUigTxHlF0GMAEJJ8JqqvfPfQiIZwC4B+i5BOGeS0AXgHwAYD7AIyqgm4naeTzIYCVZXzuk+Qe/gZwMhLALMPTzBS8AsBhj3x3FXR70XMNeSAuNzwwB8i93I0E8AVRTkI9Rp+P/HEAp0Wo10Rd03sduTbjDXIvnyNmJKg/SpS7jsy5ncjLuCBC3S40XOdWMud6In8EQC1i5Cqi2F71j36sJXN2ARgToW41uqbftT4lc0Tn38mcWKOP+Zbx5xkA/iVzHirzy+kAMADgkI4Bvb4pVZ5DriU6nG6ZD8xFjLxNlOok8vcS+d/0CfSjCcAmgxv4TmX8qDU8obKJ+7GQyL+JGFlPlLqJyK8k8suIfF0ZI5camz3Zy8mcl4j8zUS+HzEySJS6yKKmUADQTuQ7Ahi5OOaRNe4g8qwGczGR/wUxspso1WQpP4nIf2Vh6A1kjbOJ/K9EvonIS4wdG96kozjqI5L/y8LQIuvHWCIvyYsf9UT+GGKEpd5jI5I/ZGHog2SNcYbU2kb+WBZcx1lVdB3NWXAdUW2GU6u4Gd6Zhc0wqvDueSIvIdv3AYy8yRDedWchvHvLMmGZZUjZWcLSH8DQ/YaE5Q8y5x7LhGUVUpSCT7RMwZsNnZvSITLn+syfFyIF/5jMkXQ+VUWlNWTObp8KWaeFj/b+imoNm+8naSsq1WkJ0aZMepvBWN4OyBYLQ3ubwJcYZG+xLJMejrtMair8v25Z+B8BcKbn+ELBcsicIpOI2/kyjYV/6KYSppV1xCMvN1lKF1l30BBWLvWsscrnyZRr27ayZiLhzVlpeDIu06hFfPYjAEZ7fOVOsuYCHSwJKd0bxujaa7TMKddkLEp6c1Z4N+LjBlPIeuIKztHBohGZG+Vxgx4kiFbDjS8Jsd4KslZfGT9f0Lm2LDH8YZmriY3VRNntlutI4jIUIJZlbaqhEBHCDrKWnAdJHC3kkOM2y3XaDdWzxhK5Rv03m9oJY3uaDjmy8Gih5Ro9xHiyoQVNfmz96uOW4WnsSC33Bf357tGdfLTF/AZDDXq6j/x0Q6QgawVFdHxKdR7Se2A18kwww9Jw4y3/MI4yruAdcHotXI0D5s2NdcmhGx+r0Em10OHBFK7VGP447NxG7KeLkkqfRQJyqiYZ5brksXZFkkizIbNs82x+jwHYX8bA5RoCuaWTGGqnFomk7n2/NhQKlkMKUA6FlT2fUwPvCWHg4thavEjeaTEYiZ1s8ht+6b9fQyC3dFXwtBbHOgCXGn4Zco1cMwrAzxUauDWAr/c2BHJHW0gDSyh4TQXRS+5YYWnggQAl0P4IGwKZoAbAnwEN/G2ZNLyUuRE2BDJBu8WTLJ2OawOu22g4DWXbEMgEPSF8848AHtYM0cTaNDRaTwTjLU/ze8ewFpOkGx5FXTuzzKjAyN4kZZ26hNKX9l1DoEyBf70eQDRleWxs1nRd2mm2vcfcFvjP02xuXwVupSPvDYE5FuFXg8pvDWHwkbw3BPpDJhRXA3iffBrCdpg+JZEJmiNIkStxK7lpCHRGWPRp0M2PVexy3RAYrEIZU8K6GzXqsDG06JJJJhtuOswZN/n2xzQAL1dQak3s2bpKWFphq6lRDSuh28YINkQZzyJHBf4FBh98g7qVjQFfg7MdxeZvZpgSYPcfV2LYPkNSE/Voy0OBfxeAp9WwrLQZdhzVlH6RGnND1hsCNYYT/FGO4+pilqsvl5eYgjQE9mWlITC1isb9SaOOaXpMrBqHKFNDbxUMO9PwTZAwDQHTseDUMFxhVCCva9wV0rBB3xAQ15YrQ+/VX4B8Cv78KujCXt0QP516ug2G3a+N1/n6LdETwTIfPWQDTT31auyD+q71ZwAe1c8L27xIFBW1atgDJU2CRP8PFQ6Hw+FwOBwOh8OBavI/2m+8GN2wbeQAAAAASUVORK5CYII=;" vertex="1" parent="giXjE-jGlY2pUmAAoUkI-111">
          <mxGeometry y="27" width="100" height="100" as="geometry" />
        </mxCell>
        <mxCell id="giXjE-jGlY2pUmAAoUkI-71" value="" style="shape=image;verticalLabelPosition=bottom;labelBackgroundColor=default;verticalAlign=top;aspect=fixed;imageAspect=0;image=data:image/png,iVBORw0KGgoAAAANSUhEUgAAAFoAAABaCAYAAAA4qEECAAAACXBIWXMAAAsTAAALEwEAmpwYAAAHdklEQVR4nO2daYwURRSAv4Vld0FgPRZMPDgEBBU1AsEIKjHiQTxAjYIaJSpijKLrQRRvERGPYFAiokYEVBDEEDaoq4iCJwYEBExEiKACSuRwQWBBd0yZt8lk0l1d3dM9XT30l9Sf2a6uV6+7q169eq8WUlJSUlJSUlIOVtoC/YFq4DVgAbAU+AnYCuyTslV+WyrXvCp1zpV7pORwGDAYmA78DmRCKlvknureh3KQ0hq4HfgMOBCict2KauNT4DagFQcBXYBxwPYCKNet1AGTge4UIT2AD4GGGBWcW5QsHwCnUQQcJW/PPxYoVqfwWUB7EkgZ8Bjwd4CO1wMrgDeB+4CLgZ5AZ6ANUC6lrfym/nYJcD/wltTdH6Dd3cAjInsi6Aos89nJrcA04EqZKPOlhZiIE4DffMqizMXjsZxh8maYdGg/MBM4CyiJUCZ177OBd3y86buAG7GQClGaSSe2AaNl/C40R0vbplbPDOmbFajFwCLDN3iyjLM2LJLGyQrTS+6vgCPiFli9IasMhJ0nNrRtqLG4xkD+72P6Av9HzfgbDWbyYdjPcAMLaQPQqdCCVQE/egi2KmGrr24G1tJ64MhCCXQIsMRDoJli6yaNclm86Pq2RMzHSCk1GNOU7dokz3aaAL2AW4FJ4nxa5+AmXSd/e0mu7RWCqajaftGjjzWii8gY7SGAWp3l08EBwJQ83aWq7uvAhXk+8Ac82nmcCNmiaVg9hCC0BO4WJ34m5LIWuEuGuyCM0dx7ExGyzaXRKQE+2abAzcDmCBScW1QbN0mbflB9esPlnn8SIS87NKjcn8183udkYGUBFJxblgewhJpJH3PvpeaOyFCz7dSsCWmqzxm4BLgD2BuDkhvLXtnd8fMFthCnV730W73lzSkAFQHMtzJxY5oqRHXqY+AhYJDYuVVZbtIq+e0yuWaB1DG9//QAX2KFTb4PJ1oBHxkq4GvgOpkkg7RzPfCNYVu1AduxkubAF4bOmz4htnumPDSvdhfb/paaoOzYOR4d3QFcG5FPukS+jp0eMrwbwiIrVsYYDBPtCyBHRwO3wRMkFDVe7tF0bG6hZu4sy2GeRp49SR2vO2o69XaAxUMYlMqWlptcidwJV+Pjzw6dWRizZ69copacXKBR7l1Gyuk5S+xaoDJuoUSGbHNTydibhNNCdrrVsjvoTs4oUcymrFXpJvltlFwThFNEtkLOFdbRTSbMfw1sYXXNexJTkuKDasMd6tyyT3wpKR6UiFcsk2eZmOSJrRCMDUHJjeXJuDtjc2hvQ4iKbiiWkNywuccjeHyMKK6llB7y2y5NPbWNlZLD1S7KUjsx7XCnvUQSOdUdoql30FIusc3ZilpjmGGlrvnBYdsqMbHOcazYHpUgltESjGjK4VJnltzDhhVoSkpKSkpKShS0FishjFIZgjwdJAj+FdlsWC7Rp0skkXOShCaonaBEEWaQ4oaAMpRIsM1in8t5Ffp7VVJ2wnfGrOjOhklLuvIlcAIWUxGikjMBFH2+xIeEFZt3KZZybIyKPi/gJoFXqt4VWEjPmBTdxceb3CCJnKaRrHVxZGF5McBF2OcktWy4z3KNQZtq4vrcQ1nbJfm/e07kqPL43QKs9qivJlWrGOoiaNCdbxMGeyip1iBVrVRCwXQWisojt4Z7XYSMMidvpYe51jykGMHZWMQzLiEAUYV99fLI1tVtFLi92Wtc7rfDJvvaKaHmjwjbe1CjaLXBG4QbZEx3KidiCe+7pChn006SLsfKKQfjZcjpHeCNqdVYFjYm94fGUodOfyJ/6yS+Bd2Es1kCX8oMP/M6l/uo7ayi5heXQ0X6+jiRJiObrO3zWBypBKCixmkRsFyTAJrxSDHWedRO1dR9mCJ3j2ZCLt9pEnjO0dQzibsbKKfP+CnqFLLY6WxwXGUNMEKcNZfLam2tRz0V6OjEIE0dlYbsxcQAD/55LKCPRsDVmpTgUjkhQDdBOiVc9tfUubOYFe32hm00PKhqgqaD/Ryu76G5XsVzFK2iy1y2o0yXwJXAXz5S0jp4JCFFoWjlHCsK5rh0UB2b6RQ65uZ/VuO+F301XkO3w7hU+kZR8JRLB1WOihNu7tGGPNMrnNYDmYScdGaEWwB6jc/rVXk6oAxVmnyZC7CAZyWwMLf48UXPdumgOrcfn5bH7oCJmdUu96u3JaN2fp5etErNDvpIlzpNNZ95kKTRYzSrWLWzbvX4WmfoSXtBo7CTAryBjWW+4T9R6OQQW23l+KzzPai37gyNWej2kBoXOzoqDIJ2tohrVo2/uRwnCUW61Iz1AU6piZSFGmEb5BiekbLPN1TsUt2nnzGMrehn+F8vDojpt0gOYDE9vFsdHG4VXUM+kGquj7ZHhNhuIhYpAwOerZ/JKcsCHAhYbZjKbFqmxXTMhTEXyV5h0A7OziOSVNm6v+ap4Hr5QhJBWwmV9TOUrJb0t3xpKUez+X3Y+ySMV/lREkcbmfFniHVQlzUxKWvgW1nF9Y9gO7+ZHAI7Xk4oyz5Tdb+4YFfICzHEkuPwQ6Us5vYTf+xaSkpKSkoKSeU/O0kRKfQr9LMAAAAASUVORK5CYII=;" vertex="1" parent="giXjE-jGlY2pUmAAoUkI-111">
          <mxGeometry x="31" width="39" height="39" as="geometry" />
        </mxCell>
        <mxCell id="giXjE-jGlY2pUmAAoUkI-112" value="" style="group" vertex="1" connectable="0" parent="1">
          <mxGeometry x="-60" y="293" width="100" height="127" as="geometry" />
        </mxCell>
        <mxCell id="giXjE-jGlY2pUmAAoUkI-28" value="" style="shape=image;verticalLabelPosition=bottom;labelBackgroundColor=default;verticalAlign=top;aspect=fixed;imageAspect=0;image=data:image/png,iVBORw0KGgoAAAANSUhEUgAAAFoAAABaCAYAAAA4qEECAAAACXBIWXMAAAsTAAALEwEAmpwYAAAGYklEQVR4nO2dWWwWVRTH/whdgGoisWgsWpcnoxa36osl7mvRJ55AFCMuLNUXYygqBomWB4PUGBQ31NiqiREXMBFfiG2oERUpEkMQRSCiFlIQZRH7mZOcL/kymf/95s43H7PdX3JfyLl3zpzOd+5Z7gyAw+FwOBwOh8PhcDgcUVIPoAvADgCbATyQIvM+CGALgG0AngFQhwTzGoCCZ8xG8pnto/erSCiTAfzno/DXSD7f+Ogt99KCBPKRj7IF/TkmnR+I7quRMK4EMEKUXYzks5joLvfUigTxHlF0GMAEJJ8JqqvfPfQiIZwC4B+i5BOGeS0AXgHwAYD7AIyqgm4naeTzIYCVZXzuk+Qe/gZwMhLALMPTzBS8AsBhj3x3FXR70XMNeSAuNzwwB8i93I0E8AVRTkI9Rp+P/HEAp0Wo10Rd03sduTbjDXIvnyNmJKg/SpS7jsy5ncjLuCBC3S40XOdWMud6In8EQC1i5Cqi2F71j36sJXN2ARgToW41uqbftT4lc0Tn38mcWKOP+Zbx5xkA/iVzHirzy+kAMADgkI4Bvb4pVZ5DriU6nG6ZD8xFjLxNlOok8vcS+d/0CfSjCcAmgxv4TmX8qDU8obKJ+7GQyL+JGFlPlLqJyK8k8suIfF0ZI5camz3Zy8mcl4j8zUS+HzEySJS6yKKmUADQTuQ7Ahi5OOaRNe4g8qwGczGR/wUxspso1WQpP4nIf2Vh6A1kjbOJ/K9EvonIS4wdG96kozjqI5L/y8LQIuvHWCIvyYsf9UT+GGKEpd5jI5I/ZGHog2SNcYbU2kb+WBZcx1lVdB3NWXAdUW2GU6u4Gd6Zhc0wqvDueSIvIdv3AYy8yRDedWchvHvLMmGZZUjZWcLSH8DQ/YaE5Q8y5x7LhGUVUpSCT7RMwZsNnZvSITLn+syfFyIF/5jMkXQ+VUWlNWTObp8KWaeFj/b+imoNm+8naSsq1WkJ0aZMepvBWN4OyBYLQ3ubwJcYZG+xLJMejrtMair8v25Z+B8BcKbn+ELBcsicIpOI2/kyjYV/6KYSppV1xCMvN1lKF1l30BBWLvWsscrnyZRr27ayZiLhzVlpeDIu06hFfPYjAEZ7fOVOsuYCHSwJKd0bxujaa7TMKddkLEp6c1Z4N+LjBlPIeuIKztHBohGZG+Vxgx4kiFbDjS8Jsd4KslZfGT9f0Lm2LDH8YZmriY3VRNntlutI4jIUIJZlbaqhEBHCDrKWnAdJHC3kkOM2y3XaDdWzxhK5Rv03m9oJY3uaDjmy8Gih5Ro9xHiyoQVNfmz96uOW4WnsSC33Bf357tGdfLTF/AZDDXq6j/x0Q6QgawVFdHxKdR7Se2A18kwww9Jw4y3/MI4yruAdcHotXI0D5s2NdcmhGx+r0Em10OHBFK7VGP447NxG7KeLkkqfRQJyqiYZ5brksXZFkkizIbNs82x+jwHYX8bA5RoCuaWTGGqnFomk7n2/NhQKlkMKUA6FlT2fUwPvCWHg4thavEjeaTEYiZ1s8ht+6b9fQyC3dFXwtBbHOgCXGn4Zco1cMwrAzxUauDWAr/c2BHJHW0gDSyh4TQXRS+5YYWnggQAl0P4IGwKZoAbAnwEN/G2ZNLyUuRE2BDJBu8WTLJ2OawOu22g4DWXbEMgEPSF8848AHtYM0cTaNDRaTwTjLU/ze8ewFpOkGx5FXTuzzKjAyN4kZZ26hNKX9l1DoEyBf70eQDRleWxs1nRd2mm2vcfcFvjP02xuXwVupSPvDYE5FuFXg8pvDWHwkbw3BPpDJhRXA3iffBrCdpg+JZEJmiNIkStxK7lpCHRGWPRp0M2PVexy3RAYrEIZU8K6GzXqsDG06JJJJhtuOswZN/n2xzQAL1dQak3s2bpKWFphq6lRDSuh28YINkQZzyJHBf4FBh98g7qVjQFfg7MdxeZvZpgSYPcfV2LYPkNSE/Voy0OBfxeAp9WwrLQZdhzVlH6RGnND1hsCNYYT/FGO4+pilqsvl5eYgjQE9mWlITC1isb9SaOOaXpMrBqHKFNDbxUMO9PwTZAwDQHTseDUMFxhVCCva9wV0rBB3xAQ15YrQ+/VX4B8Cv78KujCXt0QP516ug2G3a+N1/n6LdETwTIfPWQDTT31auyD+q71ZwAe1c8L27xIFBW1atgDJU2CRP8PFQ6Hw+FwOBwOh8OBavI/2m+8GN2wbeQAAAAASUVORK5CYII=;" vertex="1" parent="giXjE-jGlY2pUmAAoUkI-112">
          <mxGeometry y="27" width="100" height="100" as="geometry" />
        </mxCell>
        <mxCell id="giXjE-jGlY2pUmAAoUkI-70" value="" style="shape=image;verticalLabelPosition=bottom;labelBackgroundColor=default;verticalAlign=top;aspect=fixed;imageAspect=0;image=data:image/png,iVBORw0KGgoAAAANSUhEUgAAAFoAAABaCAYAAAA4qEECAAAACXBIWXMAAAsTAAALEwEAmpwYAAAHdklEQVR4nO2daYwURRSAv4Vld0FgPRZMPDgEBBU1AsEIKjHiQTxAjYIaJSpijKLrQRRvERGPYFAiokYEVBDEEDaoq4iCJwYEBExEiKACSuRwQWBBd0yZt8lk0l1d3dM9XT30l9Sf2a6uV6+7q169eq8WUlJSUlJSUlIOVtoC/YFq4DVgAbAU+AnYCuyTslV+WyrXvCp1zpV7pORwGDAYmA78DmRCKlvknureh3KQ0hq4HfgMOBCict2KauNT4DagFQcBXYBxwPYCKNet1AGTge4UIT2AD4GGGBWcW5QsHwCnUQQcJW/PPxYoVqfwWUB7EkgZ8Bjwd4CO1wMrgDeB+4CLgZ5AZ6ANUC6lrfym/nYJcD/wltTdH6Dd3cAjInsi6Aos89nJrcA04EqZKPOlhZiIE4DffMqizMXjsZxh8maYdGg/MBM4CyiJUCZ177OBd3y86buAG7GQClGaSSe2AaNl/C40R0vbplbPDOmbFajFwCLDN3iyjLM2LJLGyQrTS+6vgCPiFli9IasMhJ0nNrRtqLG4xkD+72P6Av9HzfgbDWbyYdjPcAMLaQPQqdCCVQE/egi2KmGrr24G1tJ64MhCCXQIsMRDoJli6yaNclm86Pq2RMzHSCk1GNOU7dokz3aaAL2AW4FJ4nxa5+AmXSd/e0mu7RWCqajaftGjjzWii8gY7SGAWp3l08EBwJQ83aWq7uvAhXk+8Ac82nmcCNmiaVg9hCC0BO4WJ34m5LIWuEuGuyCM0dx7ExGyzaXRKQE+2abAzcDmCBScW1QbN0mbflB9esPlnn8SIS87NKjcn8183udkYGUBFJxblgewhJpJH3PvpeaOyFCz7dSsCWmqzxm4BLgD2BuDkhvLXtnd8fMFthCnV730W73lzSkAFQHMtzJxY5oqRHXqY+AhYJDYuVVZbtIq+e0yuWaB1DG9//QAX2KFTb4PJ1oBHxkq4GvgOpkkg7RzPfCNYVu1AduxkubAF4bOmz4htnumPDSvdhfb/paaoOzYOR4d3QFcG5FPukS+jp0eMrwbwiIrVsYYDBPtCyBHRwO3wRMkFDVe7tF0bG6hZu4sy2GeRp49SR2vO2o69XaAxUMYlMqWlptcidwJV+Pjzw6dWRizZ69copacXKBR7l1Gyuk5S+xaoDJuoUSGbHNTydibhNNCdrrVsjvoTs4oUcymrFXpJvltlFwThFNEtkLOFdbRTSbMfw1sYXXNexJTkuKDasMd6tyyT3wpKR6UiFcsk2eZmOSJrRCMDUHJjeXJuDtjc2hvQ4iKbiiWkNywuccjeHyMKK6llB7y2y5NPbWNlZLD1S7KUjsx7XCnvUQSOdUdoql30FIusc3ZilpjmGGlrvnBYdsqMbHOcazYHpUgltESjGjK4VJnltzDhhVoSkpKSkpKShS0FishjFIZgjwdJAj+FdlsWC7Rp0skkXOShCaonaBEEWaQ4oaAMpRIsM1in8t5Ffp7VVJ2wnfGrOjOhklLuvIlcAIWUxGikjMBFH2+xIeEFZt3KZZybIyKPi/gJoFXqt4VWEjPmBTdxceb3CCJnKaRrHVxZGF5McBF2OcktWy4z3KNQZtq4vrcQ1nbJfm/e07kqPL43QKs9qivJlWrGOoiaNCdbxMGeyip1iBVrVRCwXQWisojt4Z7XYSMMidvpYe51jykGMHZWMQzLiEAUYV99fLI1tVtFLi92Wtc7rfDJvvaKaHmjwjbe1CjaLXBG4QbZEx3KidiCe+7pChn006SLsfKKQfjZcjpHeCNqdVYFjYm94fGUodOfyJ/6yS+Bd2Es1kCX8oMP/M6l/uo7ayi5heXQ0X6+jiRJiObrO3zWBypBKCixmkRsFyTAJrxSDHWedRO1dR9mCJ3j2ZCLt9pEnjO0dQzibsbKKfP+CnqFLLY6WxwXGUNMEKcNZfLam2tRz0V6OjEIE0dlYbsxcQAD/55LKCPRsDVmpTgUjkhQDdBOiVc9tfUubOYFe32hm00PKhqgqaD/Ryu76G5XsVzFK2iy1y2o0yXwJXAXz5S0jp4JCFFoWjlHCsK5rh0UB2b6RQ65uZ/VuO+F301XkO3w7hU+kZR8JRLB1WOihNu7tGGPNMrnNYDmYScdGaEWwB6jc/rVXk6oAxVmnyZC7CAZyWwMLf48UXPdumgOrcfn5bH7oCJmdUu96u3JaN2fp5etErNDvpIlzpNNZ95kKTRYzSrWLWzbvX4WmfoSXtBo7CTAryBjWW+4T9R6OQQW23l+KzzPai37gyNWej2kBoXOzoqDIJ2tohrVo2/uRwnCUW61Iz1AU6piZSFGmEb5BiekbLPN1TsUt2nnzGMrehn+F8vDojpt0gOYDE9vFsdHG4VXUM+kGquj7ZHhNhuIhYpAwOerZ/JKcsCHAhYbZjKbFqmxXTMhTEXyV5h0A7OziOSVNm6v+ap4Hr5QhJBWwmV9TOUrJb0t3xpKUez+X3Y+ySMV/lREkcbmfFniHVQlzUxKWvgW1nF9Y9gO7+ZHAI7Xk4oyz5Tdb+4YFfICzHEkuPwQ6Us5vYTf+xaSkpKSkoKSeU/O0kRKfQr9LMAAAAASUVORK5CYII=;" vertex="1" parent="giXjE-jGlY2pUmAAoUkI-112">
          <mxGeometry x="30.5" width="39" height="39" as="geometry" />
        </mxCell>
        <mxCell id="giXjE-jGlY2pUmAAoUkI-113" value="" style="group" vertex="1" connectable="0" parent="1">
          <mxGeometry x="1030" y="316" width="200" height="134" as="geometry" />
        </mxCell>
        <mxCell id="giXjE-jGlY2pUmAAoUkI-16" value="" style="shape=image;verticalLabelPosition=bottom;verticalAlign=top;imageAspect=0;aspect=fixed;image=data:image/png,iVBORw0KGgoAAAANSUhEUgAAAGQAAABkCAYAAABw4pVUAAAACXBIWXMAAAsTAAALEwEAmpwYAAAFvUlEQVR4nO2daahVVRTHf5ZCRpONZh+aiMpsLqNooEzS16CVpYVkA1JRWBRhMw0fGkhCv0QQ0SAUBH3xQ0UD0ZyU5gfJtOn1yjTNqdf4fG/HjnXzvMM513vPPefstffbP/iDXC/eddffs/c+6+y9LkTqZjqwGHgfGFv7p0cGcRXQDxjR0sF/HamTy4G+hBlWb9YaQeR/ZgBbU2bYK+XibW+J1MUlGVfGVhm+Ig5YGc3Qw97APwlD+mT4ijjkHqAX+A241GUgkUgksg27hF0N/AjMSrweccC01NJ2CzDSRSAR/puokyspqyUxMTqujMbSdoqjeIY0F+SYYU2KOOCjjDvwK1wEEoEdZEUVrwxF2HmiB1gTq7aRppwBLAh8MtsZGI4HnJdag99PeFwN/Cnf73EUc4LckZqUbHUzFK5NPQO3fz4YpXX+ngwzGrqT8MwwwM/AjihjGLCoiRkN3UFYZvRrLRre1IIZDd2On1Xb/gwzrEnqGA1sbMMQq7n4xdup+AeAG1DKy22a0fhCc/CHpT5cGZZTC5iRNMUOdT4wVrZ5Lta+IeGNDgzxzRT1dHJ1pE2Z7frLhMArJRnSGJevqynufYCHZV7oFS2R1/bFU0ZnPKIswxRbkqh6+bq5SQxbfK2/3V2yGUlTqtrfelHG5ua8IdQ7U5ZXZIiRpM0sOd49gfVtxLBZhjYvOLRCM6p69Dm3QAwP4Qm31mBIY3PA9JJi/qDA53uzbef1mgxpmDKtwwr0+cCGAp9tJ3j1DCtQtypj+JrRYnxjgMuA+cBnGQVB0+Y8op7DajbDiOwSe2qTpeyLQHfJn+nFkHWlI0MM8DdwYUZMR8ouj7I/70E84AGHhhgxxc4JaY4C1pb4OZtk/lHPM44NMcBfwOSM2MYBv5Tw7w/IoUwveE2BIUZ2fNjdLWmOAdZ1eGV4Y4blCwVmGNEfwMSMGI9t8a58BfCrnPP7XOYML4apJCsUGGFSpkwoYIpdSo8iAL5WYIJJ6XfgnIxYj2tiir1HCYLvFBhgckw5OyPe42VYSr9f9W7DdlilIPkmR3YuOD0j5vEyWSff20WgB1K0qRc4KyPuExP1LFsf241AeFVB0k0LppyZswfA1qc+JCCeUpBw04Js4k/JiP80Dzfplf6gx5U2AifnVKyD4VwFiTZtaFOOKcEwSmo9xrMr5SQC5lsFSTYFTLErrSB5TkGCTQGtk+JjcExVkFxTULY8fzSBMVLW+j6bMo7A8OEG0TTRWnnKGFT7IeO5VgOHEwj21Ok3CpJqOtQa2SQRBLcpSKgpQfZY8xEEwK7b2drvk3pkz7L3PKIgmaYkdWvtyNDuVZLsEeW7ukMw5RoFiTTRlMGd1D5VkEhTor4HDsJjxldw5tC1VgEH4DFVnTs0DrXSZ1Ps0PVWoKaMwVP2q+hogHGsr4D98ZRJGc2EQ9BynxsLzPTwUa9pQV9K0wQvuU9BAk0FWubjLvkGCxQk0FQgeyxjLzwt07+kIIGmAtlDobvg6XL4aQUJNBXIi6aeXRltU+1uwccUJNCULHszrJo5srp6IacN9y0BlViWAXugmNmppe6inN9csmc4flKQUNOBbEVidxRzY859xzvyzCSNXcu/qyCxpk3ZVh3zgBEo5vrt3ATaE64H5kz2N3v0GLgn54Cp+vbbWVqfc64cqRGV2b/RVNA9Yr72IQppWtlOtx17FPneJuczJhTsa2Uqkq3HLQzhkW6nTJSmxS4Pjz6ZM8wOaexWzydqKuf3SWO2WSEdCK2KEVLSnydr/4ESd5g8L61pvWl4qfUh2BQ57/gs8LE0NNiQmtP65DW75fUTOddyl+xLPgTP6JJfOK57/H5PWvQN7/DHunYiMJr9dFEdsv8ZHpXftIo4NiNrk8GQxyjTkMe1AdGQFK4NiIakcG1ANCSFawOiISlcGxANSeHagGiIshvDpH5IBzcUmSyJ0GDGJNfJcM2/FO38Ytu+nvQAAAAASUVORK5CYII=;flipH=1;" vertex="1" parent="giXjE-jGlY2pUmAAoUkI-113">
          <mxGeometry width="100" height="100" as="geometry" />
        </mxCell>
        <mxCell id="giXjE-jGlY2pUmAAoUkI-89" value="&lt;b&gt;Satellite backhaul station&lt;/b&gt;" style="text;html=1;strokeColor=none;fillColor=none;align=center;verticalAlign=middle;whiteSpace=wrap;rounded=0;fontFamily=Verdana;fontSize=11;" vertex="1" parent="giXjE-jGlY2pUmAAoUkI-113">
          <mxGeometry x="90" y="104" width="110" height="30" as="geometry" />
        </mxCell>
        <mxCell id="giXjE-jGlY2pUmAAoUkI-114" value="" style="group" vertex="1" connectable="0" parent="1">
          <mxGeometry x="-160" y="-104" width="229.5" height="30" as="geometry" />
        </mxCell>
        <mxCell id="giXjE-jGlY2pUmAAoUkI-45" value="&lt;b&gt;&lt;font style=&quot;font-size: 16px;&quot;&gt;MEO&lt;/font&gt;&lt;/b&gt;" style="text;html=1;strokeColor=none;fillColor=none;align=center;verticalAlign=middle;whiteSpace=wrap;rounded=0;fontFamily=Verdana;" vertex="1" parent="giXjE-jGlY2pUmAAoUkI-114">
          <mxGeometry x="169.5" width="60" height="30" as="geometry" />
        </mxCell>
        <mxCell id="giXjE-jGlY2pUmAAoUkI-49" value="&lt;font style=&quot;font-size: 15px;&quot;&gt;5.000 ~ 20.000&lt;/font&gt;" style="text;html=1;strokeColor=none;fillColor=none;align=right;verticalAlign=middle;whiteSpace=wrap;rounded=0;fontFamily=Verdana;" vertex="1" parent="giXjE-jGlY2pUmAAoUkI-114">
          <mxGeometry width="130.5" height="30" as="geometry" />
        </mxCell>
        <mxCell id="giXjE-jGlY2pUmAAoUkI-115" value="" style="group" vertex="1" connectable="0" parent="1">
          <mxGeometry x="348" y="360" width="77" height="60" as="geometry" />
        </mxCell>
        <mxCell id="giXjE-jGlY2pUmAAoUkI-37" value="" style="shape=image;verticalLabelPosition=bottom;labelBackgroundColor=default;verticalAlign=top;aspect=fixed;imageAspect=0;image=data:image/png,iVBORw0KGgoAAAANSUhEUgAAAgAAAAIACAYAAAD0eNT6AAAACXBIWXMAAAsSAAALEgHS3X78AAAQEUlEQVR4nO3d7XFVxwHH4d2Mv0MH4ApQB9xUAO6AdKB0oBLkCqIOLCqI6ECqwNABVLCZk1l5lMTGhD1v9/yfZ0aDZ/IhnL1i93f3vNXWWoFHtdaXpZTp51RKeV5Kuej/0/TnMwMFu/ellHLf/5LTn59LKXellI+ttY8+Ph4JgHC11lNf7E8WeTi8xziYguCutXbnI88lAML0b/hv+4L/Jn08gPK+B8GtHYIsAiDAk0X/XSnlVfp4AH/ooZRyIwYyCIADq7U+Lvq+6QP/r2ln4Ka1dmvkjkkAHEyt9Xlf9C9LKS/SxwMY9qmUct1j4LPhPA4BcBB94b/sPy7kA+b2pYfAtRA4BgFwALXWKws/sJIvPQKuDPh5EwBnrJ/jv7bVD2xgOjVw6RqB8yUAzlC/qn+6Uvd1+lgAm/swXXfkroHz85f0ATg3tdbL/iAPiz+wB9NcdN/nJs6IHYAz4Vs/cAbsBpwROwBnoJ/r960f2LvH3YC3Pqn9EwA7V2udLvL7xRX+wJmY5qpf+tzFjjkFsFP9vv5b3/qBMzadEnjruQH7ZAdgh2qtF/3lHBZ/4JxNc9hdn9PYGTsAO/Nk8bflDxzF9PCgU2vt3ie6H3YAdsTiDxzUMzsB+yMAdsLiDxycCNgZAbADFn8ghAjYEQGwMYs/EEYE7IQA2JDFHwglAnZAAGyk3+d/Y/EHQk1z302fC9mAANjO9JCfV6kHD9DnQK8T3ogA2EB/RKaH/ACU8tpjg7fhQUAr6y/J+CXqoAH+3E+tNbsBKxIAK+qv9L133h/gf0xPC7zwKuH1OAWwLhf9Afy+Z32OZCUCYCW11kvn/QG+6nWfK1mBUwArsPUP8M2cCliJHYB12PoH+DZOBaxEACysX/Vv6x/g273ucycLcgpgYbXWaRvrxaEPEmB+n1prL43rcuwALKjWemXxB/guL/ocykLsACykP9/6o3P/AN9tuiDwZWvtsyGcnx2A5Vxa/AGGPOtzKQuwA7AA3/4BZmMXYCF2AJbxzuIPMItnfU5lZnYAFuDKf4BZuSNgAXYAZtbvXbX4A8znhecCzE8AzM9WFcD8zK0zcwpgRv2Z/78e5oAA9uVH7wiYjx2AedmiAliOOXZGAmBetqgAlmOOnZFTADOx/Q+wCqcBZmIHYD62pgCWZ66diQCYz+koBwKwY+bamTgFMJNaq4EEWEFrrRrncXYAZlBrVaQAKzHnzkMAzMMvI8B6zLkzEADz8MsIsB5z7gxcAzCDWutnb/8DWM2X1tpzwz3GDsCgfv+/xR9gPc/63MsAATDOLyHA+sy9gwTAOOeiANZn7h0kAMY5DwWwPnPvIAEw7uLcDwDgDJl7BwkAAAjkNsBBbgEE2IRbAQcJgEHeAQCwDe8EGOMUAAAEEgAAEEgAAEAgAQAAgX7woTPCRTiwHRchM8IOAAAEEgAAEEgAAEAgAQAAgQQAAAQSAAAQSAAAQCABAACBBAAABBIAABBIAABAIAEAAIEEAAAEEgAAEEgAAEAgAQAAgQQAAAQSAAAQSAAAQCABAACBBAAABBIAABBIAABAIAEAAIEEAAAEEgAAEEgAAEAgAQAAgQQAAAQSAAAQSAAAQCABAACBBAAABBIAABBIAABAIAEAAIEEAAAEEgAAEEgAAEAgAQAAgQQAAAQSAAAQSAAAQCABAACBBAAABBIAABBIAABAIAEAAIEEAAAEEgAAEEgAAEAgAQAAgQQAAAQSAAAQSAAAQCABAACBBAAABBIAABBIAABAIAEAAIEEAAAEEgAAEEgAAEAgAQAAgQQAAAQSAAAQSAAAQCABAACBBAAABBIAABBIAABAIAEAAIEEAAAEEgAAEEgAAEAgAQAAgQQAAAQSAAAQSAAAQCABAACBBAAABBIAABBIAABAIAEAAIEEAAAEEgAAEEgAAEAgAQAAgQQAAAQSAAAQSAAAQCABAACBBAAABBIAABBIAABAIAEAAIEEAAAEEgAAEEgAAEAgAQAAgQQAAAQSAAAQSAAAQCABAACBBAAABBIAABBIAABAIAEAAIEEAAAEEgAAEEgAAEAgAQAAgQQAAAQSAAAQSAAAQCABAACBBAAABBIAABBIAABAIAEAAIEEAAAEEgAAEEgAAEAgAQAAgQQAAAQSAAAQSAAAQCABAACBBAAABBIAABBIAABAIAEAAIEEAAAEEgAAEEgAAEAgAQAAgQQAAAQSAAAQSAAAQCABAACBBAAABBIAABBIAABAIAEAAIEEAAAEEgAAEEgAAEAgAQAAgQQAAAQSAAAQSAAAQCABAACBBAAABBIAABBIAABAIAEAAIEEAAAEEgAAEEgAAEAgAQAAgQQAAAQSAAAQSAAAQCABAACBBAAABBIAABBIAABAIAEAAIEEAAAEEgAAEEgAAEAgAQAAgQQAAAQSAAAQSAAAQCABAACBBAAABBIAABBIAABAIAEAAIEEAAAEEgAAEEgAAEAgAQAAgQQAAAQSAAAQSAAAQCABAACBBAAABBIAABBIAABAIAEAAIEEAAAEEgAAEEgAAEAgAQAAgQQAAAQSAAAQSAAAQCABAACBBAAABBIAABBIAABAIAEAAIEEAAAEEgAAEEgAAEAgAQAAgQQAAAQSAAAQSAAAQCABAACBBAAABBIAABBIAABAIAEAAIEEAAAEEgAAEEgAAEAgAQAAgQQAAAQSAAAQSAAAQCABAACBBAAABBIAABBIAABAIAEAAIEEAAAEEgAAEEgAAEAgAQAAgQQAAAQSAAAQSAAAQCABAACBBAAABBIAABBIAABAIAEAAIEEAAAEEgAAEEgAAEAgAQAAgQQAAAQSAAAQSAAAQCABAACBBAAABBIAABBIAABAIAEAAIEEAAAEEgAAEEgAAEAgAQAAgQQAAAQSAAAQSAAAQCABAACBBAAABBIAABBIAABAIAEAAIEEAAAEEgAAEEgAAEAgAQAAgQQAAAQSAAAQSAAAQCABAACBBAAABBIAABBIAABAIAEAAIEEAAAEEgAAEEgAAEAgAQAAgQQAAAQSAAAQSAAAQCABAACBBAAABBIAABBIAABAIAEAAIEEAAAEEgAAEEgAAEAgAQAAgQQAAAQSAAAQSAAAQCABAACBBAAABBIAABBIAABAIAEAAIEEAAAEEgAAEEgAAEAgAQAAgQQAAAQSAAAQSAAAQCABAACBBAAABBIAABBIAABAIAEAAIEEAAAEEgAAEEgAAEAgAQAAgQQAAAQSAAAQSAAAQKAffOiMqLU2AwhwfuwAAEAgAQAAgQQAAAQSAAAQSAAAQCABAACBBAAABBIAABBIAABAIAEAAIEEAAAEEgAAEEgAAEAgAQAAgQQAAAQSAAAQSAAAQCABAACBBAAABBIAABBIAABAIAEAAIEEAAAEEgAAEEgAAEAgAQAAgQQAAAQSAAAQSAAAQCABAACBBAAABBIAABBIAABAIAEAAIEEAAAEEgAAEEgAAEAgAQAAgQQAAAQSAAAQSAAAQCABAACBBAAABBIAABBIAABAIAEAAIEEAAAE+sGHDqt5KKXc9Z/P0/9pa+0uefhrraf+n89LKaf+82rjvxZEqK01n/SAWqsB5Gu+lFJuSylXrbWPRurP1VpfllIuSynvSinP9v73ZTuttWr4v58AGCQA+Ir300Jm4f8+PQSuSylvzvHvz/IEwBjXAMD8pm/9f2utvbX4f79p7KYxnMayjykwIzsAg+wA8F+mherUWrs3MPOptV70ayecEuA3dgDG2AGA+Vj8F9LH9GQnAOYjAGA+lxb/5fSxvTzq8cHanAIY5BQA3ft+vpqF1VpvXRhIcQpgmAAYJADo29IXLvhbR7874N71AAiAMU4BwLgbi/96+ljfphwvLMUOwCA7AJRSfhQA6+q7AL8mHTP/yw7AGDsAMObB4r++PuYPaccNcxIAMCb6Wf4bM/YwQADAGIvQdow9DBAAMOaz8duMsYcBAgAAAgkAAAgkAAAgkACAMc+N32aMPQwQADDmZPw2Y+xhgACAMRah7Rh7GCAAxnk/ebZX/bG0rKiP+StjHs3cO0gAjPP+d67iR2B9xhxz7yABAOPe2gVYTx/rtynHC0sRAONUKNN76a/jR2E9133MyWbuHSQAxnkcKZM3tdZ3RmJZfYzfHPkY+Wbm3kECYJwXkvDoutZ6YTSW0cfWTguPzL2DBMA474Ln0bQtfScC5tfH9M7WP0+YewcJgEGttY9uR+GJxwhwOmAmfSwt/jz1pc+9DBAA83AxCk9NC9U/aq237g74ftPYTWM4jaXFn/9izp2BAJiHc1H8nulitfta640Q+HZ94b/pk7wL/vg95twZ1Nba2R/E1mqt0yNJ/5k9CnyDhz5x3T25gvm+tRZ7NXP/t1P6i31O/ccT/vgzf22tiYBBAmAmtVYDCbCC1lo1zuOcApjP+6McCMCOmWtnIgDmYzsKYHnm2pk4BTCTfpHXr4c4GID9+tEtgPOwAzCT/gv5cIiDAdinB4v/fATAvG6OdDAAO2OOnZFTADNyGgBgUbb/Z2QHYEb9F9MVqgDze2/xn5cAmJ8tKoD5mVtn5hTAAmqtU6W+ONyBAWzjU2vN47RnZgdgGd5ZDjAfc+oC7AAsoNb6vL+r2hvMAMZMr1t/mfzOjKXYAVhA/0VVrADjri3+y7ADsBC7AADDfPtfkB2AhdgFABjm2/+C7AAszB0BAN/Flf8LswOwvMujHyDAAsydC7MDsIJa6/T6yteHP1CAeXxorZ2M5bIEwAr6OwLuXRAI8KemC/8uPPZ3eU4BrKD/Il8d/kABxl1Z/NdhB2BFTgUAfJWt/xUJgBU5FQDwh2z9r8wpgBX1X+x3MQcM8O3eWfzXJQBW1lq7LaX8HHXQAF/3c58bWZFTABtxPQDAvznvvxE7ANt5W0p5SD14gD4HvjUQ2xAAG+nPt37XL3wBSPOln/f3rP+NCIANtdamOwJOIgAIM815pz4HshEBsDERAISx+O+EANgBEQCEsPjviADYCREAHJzFf2cEwI6IAOCgLP47JAB25kkEuEUQOIIHi/8+eRDQTtVan5dSbj0sCDhjH6b7/N3qt092AHZq+gfTn47lscHAOZoe73uy+O+XHYAzUGudnpR14y2CwBl4fMCPZ/vvnB2AM9D/IV307TSAvfrQX+lr8T8DAuBMTK/J7KcE/u4uAWBnpjnp733L3yt9z4RTAGeo1vqynxJwgSCwtQ/e5X+e7ACcoSe7AT+VUj6ljwewiWnu+cm3/vNlB+AAaq1XpZRLFwkCK5i2+69ba1cG+7wJgIPozw24FALAQv698PfF3619ByAADqaHwLseAi/SxwMY9qkv/DcW/mMRAAfWnx8wxcCb9LEA/m/v+6Lvlr6DEgAB+l0DjzHwKn08gD/00O8wunVh3/EJgDBPYuBkZwDo3/TvLPp5BEC4Wuupx8CpP23QBYRwXNOFfPd9wb9rrd35rHMJAP5D3yF42YPgeY+CIg7gbDwu8qX/+bkv+B99w+c3pZR/AXyzfbQ4zVc+AAAAAElFTkSuQmCC;" vertex="1" parent="giXjE-jGlY2pUmAAoUkI-115">
          <mxGeometry y="24" width="32" height="32" as="geometry" />
        </mxCell>
        <mxCell id="giXjE-jGlY2pUmAAoUkI-38" value="" style="shape=image;verticalLabelPosition=bottom;labelBackgroundColor=default;verticalAlign=top;aspect=fixed;imageAspect=0;image=data:image/png,iVBORw0KGgoAAAANSUhEUgAAAFoAAABaCAYAAAA4qEECAAAACXBIWXMAAAsTAAALEwEAmpwYAAABOklEQVR4nO3aQW6DQBAEwD7x9Tj/jJ1nTBSJXHxBEBjspUriukat1ajFOAEAAADgnU1JPpM8ktTK557kNp/BgtuGgJ+f3zNYsOUmPz/fSz9C/h3y38MCQTcRdJO1o8Do2EjQTQTdRNBNBN1E0E0E3UTQTQTdRNBNBN1E0E0bEEE3bUAE3bQBEXTT92JBzwTdpNxoQddIy9lyowVdbnS0jrWMjiZlRgu6zOiY0WsZHU3KjBZ0mdEZb0aftQGpq30mPWsDUlcL+qwNSF0t6LOCKEEL+hBudIyOMqNjRhsd0TpK61DvDqd1ROsorSNah9ERraO0Dq3jcFpHtI7SOqJ1GB3ROkrr0DoOp3VE66gXWP660TNBDzKadnPf4SW/Bj7/pf4S9jHw+buZ5pe9H/Qnx+nNzwcAAADI6H4An4y6Yky2Gq4AAAAASUVORK5CYII=;" vertex="1" parent="giXjE-jGlY2pUmAAoUkI-115">
          <mxGeometry x="7" width="20" height="20" as="geometry" />
        </mxCell>
        <mxCell id="giXjE-jGlY2pUmAAoUkI-91" value="&lt;b&gt;UE&lt;/b&gt;" style="text;html=1;strokeColor=none;fillColor=none;align=center;verticalAlign=middle;whiteSpace=wrap;rounded=0;fontFamily=Verdana;fontSize=11;" vertex="1" parent="giXjE-jGlY2pUmAAoUkI-115">
          <mxGeometry x="17" y="30" width="60" height="30" as="geometry" />
        </mxCell>
        <mxCell id="giXjE-jGlY2pUmAAoUkI-118" value="" style="group" vertex="1" connectable="0" parent="1">
          <mxGeometry x="598" y="362" width="60" height="84" as="geometry" />
        </mxCell>
        <mxCell id="giXjE-jGlY2pUmAAoUkI-29" value="" style="shape=image;verticalLabelPosition=bottom;labelBackgroundColor=default;verticalAlign=top;aspect=fixed;imageAspect=0;image=data:image/png,iVBORw0KGgoAAAANSUhEUgAAAFoAAABaCAYAAAA4qEECAAAACXBIWXMAAAsTAAALEwEAmpwYAAAD4ElEQVR4nO2cT4hVVRzHP5ZWlAbSTEOmwswEQrOQbNKVQVoRiBtBXASu3QTtZKaZ0IlAsFWbCCJIUSOacKGLhJRCFEELBcFEtBYNMjPVopn8O/OTA7+BUbznvZl3zj3nzv194MvwmPfO+f2+775zzz33dy4YhmEYhmEYhmEYhmEYhmE0wxPAoqbeWQOcEVuBQ8B14DYgmehv4Dfgc+B1Ksxa4EIGhkqT+gHooGJsASYzME/mqJvAGirCOuD/DEyTeeoPYAWZswS4lIFZ0qJO6sk2Wz7MwCQJpN1kSjvwb0HQE8Au4PkA/UiB5sqLwCAwVdDeXaCXDPnSY8LOgP1IIKNn+MjT5u/AUjLiNeB+QbCnA19YSGCj3Vj8k6fdr8gEZ+LPBUFORfj5SWCjHSv1Aqao7R1kwPueAL+I0J9EMNqxzdO2O/esJiHPAn8WBPcP0FYhox1fe9r/BXiSRHzqCeyDSH1KRKOfA67kNuXrAm4VBHRZL16qZjS6wHSnoI97wAZK5qgn6Xcj9iuRjXb0efq5BiyjJDZ7AhmO3LeUYHQWU77FnvUMN5R0LgCjHS8D4ymnfL71jKHYnVOe0UmnfG2e9Yw66lSsk/5ABslJZprQZYZ9wNvAMyGMvphBYpK5bumSxCc6+5rXotREBolIxeTm3ueA/XqjenkzRqcOWhaApnRkcHfft+u6uBlNfOPd8vJxoMeOaEo50if1ZGpDB/HNdlPnl2yMppQj+zMzmlKMdvcpS+lIai63RJs8CKmJkgcgNVHyAKQmSh6A1ETJA5CaKHkAUhMlD0BqouQBSE2UPACpiZIHIDVR8gCkJqr0JiCpiKad0b9mEIgscI2i1ZShGvxPa9w6tTbC/e2v6A3gkLl8P1PWejVQYEXbgnsrZnbIXKZnt/WKVlS2Epz79hdKoU5fwFxcvflDuLLVj1s4uhsVQnZnYGCZudzRocaLq0t4T7eRDesW30YNP9WgzaczMLBZtZLLef1FuMrVefGClkO5Tex2RPNYD24QkGMFnTT6mQwWfO5H0nEicC6uvWD0F3TizsRvFHxmvecRFA3HsYgMBM7FDbXBWOXZUTuhwXfpONet3/6kp1gw5V6/zoC5TOt7g3Ig0EnnIOk5HCiXb2IE19Fg+2+zl6XtMYKbRy5jLeYyHvPBKxs9exIbaRJ4k3x4q4XFtdvqRfQtc6NzDGxMP5cb7zTYsVWUy6ayAnQnx289DyMRlfv/d61M5EtgpS4ANZPLEc29dFzR9V7gDDCiT3sZ0ddDwKtUhx6N+eysXP7SXPY8WmBuGIZhGIZhGIZhGIZhGIZhGIZhEIEHw02qF30CG/kAAAAASUVORK5CYII=;" vertex="1" parent="giXjE-jGlY2pUmAAoUkI-118">
          <mxGeometry x="13" y="18" width="40" height="40" as="geometry" />
        </mxCell>
        <mxCell id="giXjE-jGlY2pUmAAoUkI-30" value="" style="shape=image;verticalLabelPosition=bottom;labelBackgroundColor=default;verticalAlign=top;aspect=fixed;imageAspect=0;image=data:image/png,iVBORw0KGgoAAAANSUhEUgAAAFoAAABaCAYAAAA4qEECAAAACXBIWXMAAAsTAAALEwEAmpwYAAABOklEQVR4nO3aQW6DQBAEwD7x9Tj/jJ1nTBSJXHxBEBjspUriukat1ajFOAEAAADgnU1JPpM8ktTK557kNp/BgtuGgJ+f3zNYsOUmPz/fSz9C/h3y38MCQTcRdJO1o8Do2EjQTQTdRNBNBN1E0E0E3UTQTQTdRNBNBN1E0E0bEEE3bUAE3bQBEXTT92JBzwTdpNxoQddIy9lyowVdbnS0jrWMjiZlRgu6zOiY0WsZHU3KjBZ0mdEZb0aftQGpq30mPWsDUlcL+qwNSF0t6LOCKEEL+hBudIyOMqNjRhsd0TpK61DvDqd1ROsorSNah9ERraO0Dq3jcFpHtI7SOqJ1GB3ROkrr0DoOp3VE66gXWP660TNBDzKadnPf4SW/Bj7/pf4S9jHw+buZ5pe9H/Qnx+nNzwcAAADI6H4An4y6Yky2Gq4AAAAASUVORK5CYII=;" vertex="1" parent="giXjE-jGlY2pUmAAoUkI-118">
          <mxGeometry x="20" width="20" height="20" as="geometry" />
        </mxCell>
        <mxCell id="giXjE-jGlY2pUmAAoUkI-92" value="&lt;b&gt;Automonous driving&lt;/b&gt;" style="text;html=1;strokeColor=none;fillColor=none;align=center;verticalAlign=middle;whiteSpace=wrap;rounded=0;fontFamily=Verdana;fontSize=11;" vertex="1" parent="giXjE-jGlY2pUmAAoUkI-118">
          <mxGeometry y="54" width="60" height="30" as="geometry" />
        </mxCell>
        <mxCell id="giXjE-jGlY2pUmAAoUkI-119" value="" style="group" vertex="1" connectable="0" parent="1">
          <mxGeometry x="-230" y="233" width="136" height="183" as="geometry" />
        </mxCell>
        <mxCell id="giXjE-jGlY2pUmAAoUkI-39" value="" style="shape=image;verticalLabelPosition=bottom;labelBackgroundColor=default;verticalAlign=top;aspect=fixed;imageAspect=0;image=data:image/png,iVBORw0KGgoAAAANSUhEUgAAAGQAAABkCAYAAABw4pVUAAAACXBIWXMAAAsTAAALEwEAmpwYAAABvElEQVR4nO2XS47DIBAFuf+la/ZRoiAb5j2HKokdlhqK/ngMERGRHggveUEhZSikDIUcctHYaxRSTfpFY4YopJr0i8YMUUg16ReNGaKQar690NnvUvuY/O4xKKQMhZShkDLSUxFOWQqpJv2iMUMUUo1NvQyFlKGQMhRSRnoqwilLIdWkXzRmiEKqsamXoZAyFFKGQspIT0U4ZSmkmvSLxgxRSDW/1tRZtGIoZCjkHWbIh4toKUWfOL5kpacm/qn21/Sa9AWiEIW8wwwZZsill9HSrFuI95C7gaEQhezEDBmWrPjoysRLbNm3nPRFoxCFYIYMM2RVyZr9bvU+dtfqi8R7yN3AUIhCdmKGDEtWfMRl43/D6n3LSV80ClEIZsgwQ1aVrNnvVu9jd62+SLyH3A0MhShkJ2bIsGTFR1w2/jes3rec9EWjEIVghgwz5NdLVgp7yFBIPBswQ/IXjkK64UsPmc2k3fuOAYV0gUK6QCFdUFqrW+M69uCUxnXswSmN69iDUxrXdrCpd4FCukAhXaCQLihtnq1xHXtwSuM69uCUxnXswSmNazs8ZB0DD1nHwEPWMfCQJSIiMnbyB6u0UnNzp4GiAAAAAElFTkSuQmCC;" vertex="1" parent="giXjE-jGlY2pUmAAoUkI-119">
          <mxGeometry y="47" width="136" height="136" as="geometry" />
        </mxCell>
        <mxCell id="giXjE-jGlY2pUmAAoUkI-40" value="" style="shape=image;verticalLabelPosition=bottom;labelBackgroundColor=default;verticalAlign=top;aspect=fixed;imageAspect=0;image=data:image/png,iVBORw0KGgoAAAANSUhEUgAAAFoAAABaCAYAAAA4qEECAAAACXBIWXMAAAsTAAALEwEAmpwYAAAFn0lEQVR4nO2cz49URRDHv7OzsqzLsovyU6KJwZjoGV3xImBEY/yBetELB39eFPzBX6AEo0GNStyVIApRCXoSUVCMgMZlRUWP/rqru+hCZMVB4Jk2Nclk8qq63r7uN2/G+iR9guquLup1dVX1ABiGYRiGYRiGYRiGYRgSVwG4A8DiNjTTYtJ9CCWmH8AeAAmNvwGsQfuwBkCtQf8PaE+lYg6AsQYl62MKwFyUn7mka7P+owAGURKcIkdTlKyPlSg/1wv6fw1gdqsV7AbwkaDkOQBLUH6WkK7cPj4EUG2lgi8LyrkxjPZhxLOXF1ql2GqPYm+Rx7cLzmNf9+zprqKVmg9gXFBoC4AutB9dAF4T9vVr0cH9XUGZva0+zyLHnZ0oiGWCEt9njNA9AC5AfC4E0JfxJvWjEOALSWgOMAr8A+Bq5RznA9gK4AzJ7gcwL4KuCwB82qDfNlpb61B1/ZqHmzMqKwRvflo5xywAh1LkXSYWmn0p6xzM4N3PCvtdjoi8wyz6mzJdrdKdNG0O5z29AXV1nnuWWet9ZRxxx+AEM8cuRMJ9hqeZRdcp59goeMhfga+D5wE4Jaz3lHKexxj5Gt2+gvM4s+Bx5ae4TDjz3NgUQefnhPW0McXt7QQzx6MRdP4vYKUt5rJDHxUAR4RNvxcpuXFz7hbWHSPdfLzCyLtrYFD6qOyZttjSnFnkAQAzEY9eCoDc+rcp5riGkT2V4Raj4kYhCGoywE8Y+Uk6+2OzkI646XplVQiKq0Iqup5Z5E2F7CVCZeyRDInNWvrUT9IYI3n3ZxrWMTqcVXaDdjLyTyAgXLHFBUgfDzKy48pz2RnhO+HT/1ZpKHcLOcbMcV8OZ3NJUDDSuidu3KSQ3ZGjhNrjMXKjsTWe/Sojv10hezMjexgB+ZlZ5DKF7FFG1inuY63CyPXxsGK+W4Quio/LGdmfEBCuJKqpT0wwslcoZL/MYGiNZ10pBHUf83PIquGudjMUsjVGVpOy/5nB0O7v+uhnZN3+fPTkkG2poWcrZCczGPp3xXwDZTd0nqNjPMfRMZrB0J93wtGRJxh+kyMYPpTB0PfnCIZflSUYHo5wvRtRyM5QBsRRuif72MLIv5HjeufWDsa2HAnLA4zshNI4Fwn3+PpGF+VMWO7NkbC4Zm4w1gtPCnxcLKTg7p4MpWcnOQIyqKTJpeDuH7MUKfgqZpFxZVFpPyN/nAo+GjhDa1gk1JRdu0tTVOK+hhsQuEzKdSvcM10ftwuGOqRsYU3X0G7uzwT5W3N0/oOXSR0fM4ttVshWPEFtt6LANB1D+wr/o8rC/3BRhX+pd6ZtZQ15WlkbIhh6o6eVtVTZtT+Rs1eaiQVClqftnW0QNn7Mc95nNbSb6w9B7smcvdJapLco4nODCWVK3SV8ylOezziroSvUWc/zDHdACIJRn4YtFzb8jHKOWUwPb3uEo2MH06PUPqDZJKx7HSJTf2LVPM5QE1NDHxXhT9Mn+DZ5T2hDD5Dn1WiMZLglXCvEFNcDjc6QkID8oDBYI9UMHfDpGLrOzIwvXAephpG23jnllTYIu4SN74v0RiPJYegsdAtXWW02HIx5VB7klNka4SF6UoChu4S6jhu/0BPgQpGyvYTO3e42MnSVqnjSnu5Ei3jRo5imFFoWQ3Md8vp4Hi2kSj+lSITAcWkbGNr387c9Zfi5yAC16zklV7SBoVcK8x8p00+VB5kuzMmAP/FNIhp6DvMT5S8yXlcLob/ppwyuhHh3G53R9zSVgvdSFltKKpTQrM5Q0C/T9W4h6T6kLJ92JEkBhjZghi6MxDzaDN1RJObRZuiOIjGPNkN3FIl5tBm6o0jMo83QHUViHm2G7igS8+himEwxtHvEaARmc4qhXzIrh6eXni9M0RgO/J9dGU1U/s9tJsMwDMMwDMMwDMMwIPEvxCwIAVjoQToAAAAASUVORK5CYII=;" vertex="1" parent="giXjE-jGlY2pUmAAoUkI-119">
          <mxGeometry x="20" width="60" height="60" as="geometry" />
        </mxCell>
        <mxCell id="giXjE-jGlY2pUmAAoUkI-81" value="&lt;b style=&quot;font-size: 11px;&quot;&gt;&lt;font style=&quot;font-size: 11px;&quot;&gt;CORE&lt;/font&gt;&lt;/b&gt;" style="text;html=1;strokeColor=none;fillColor=none;align=center;verticalAlign=middle;whiteSpace=wrap;rounded=0;fontFamily=Verdana;fontSize=11;fontColor=#ffffff;" vertex="1" parent="giXjE-jGlY2pUmAAoUkI-119">
          <mxGeometry x="60" y="69" width="60" height="30" as="geometry" />
        </mxCell>
        <mxCell id="giXjE-jGlY2pUmAAoUkI-120" value="" style="group" vertex="1" connectable="0" parent="1">
          <mxGeometry x="-170" y="60" width="239.5" height="30" as="geometry" />
        </mxCell>
        <mxCell id="giXjE-jGlY2pUmAAoUkI-46" value="&lt;b&gt;&lt;font style=&quot;font-size: 16px;&quot;&gt;LEO&lt;/font&gt;&lt;/b&gt;" style="text;html=1;strokeColor=none;fillColor=none;align=center;verticalAlign=middle;whiteSpace=wrap;rounded=0;fontFamily=Verdana;" vertex="1" parent="giXjE-jGlY2pUmAAoUkI-120">
          <mxGeometry x="179.5" width="60" height="30" as="geometry" />
        </mxCell>
        <mxCell id="giXjE-jGlY2pUmAAoUkI-48" value="&lt;font style=&quot;font-size: 15px;&quot;&gt;600 ~ 1.500&lt;/font&gt;" style="text;html=1;strokeColor=none;fillColor=none;align=right;verticalAlign=middle;whiteSpace=wrap;rounded=0;fontFamily=Verdana;" vertex="1" parent="giXjE-jGlY2pUmAAoUkI-120">
          <mxGeometry width="140.5" height="30" as="geometry" />
        </mxCell>
        <mxCell id="giXjE-jGlY2pUmAAoUkI-121" value="" style="endArrow=none;dashed=1;html=1;dashPattern=1 3;strokeWidth=2;rounded=0;entryX=0;entryY=1;entryDx=0;entryDy=0;exitX=1;exitY=0.25;exitDx=0;exitDy=0;" edge="1" parent="1" source="giXjE-jGlY2pUmAAoUkI-40" target="giXjE-jGlY2pUmAAoUkI-23">
          <mxGeometry width="50" height="50" relative="1" as="geometry">
            <mxPoint x="-160" y="220" as="sourcePoint" />
            <mxPoint x="-110" y="170" as="targetPoint" />
          </mxGeometry>
        </mxCell>
        <mxCell id="giXjE-jGlY2pUmAAoUkI-42" value="&lt;b style=&quot;font-size: 11px;&quot;&gt;&lt;font style=&quot;font-size: 11px;&quot;&gt;GNSS&lt;/font&gt;&lt;/b&gt;" style="text;html=1;strokeColor=none;fillColor=none;align=center;verticalAlign=middle;whiteSpace=wrap;rounded=0;fontFamily=Verdana;fontSize=11;" vertex="1" parent="1">
          <mxGeometry x="180" y="-280" width="60" height="30" as="geometry" />
        </mxCell>
        <mxCell id="giXjE-jGlY2pUmAAoUkI-122" value="" style="group" vertex="1" connectable="0" parent="1">
          <mxGeometry x="1050" y="-230" width="140" height="90" as="geometry" />
        </mxCell>
        <mxCell id="giXjE-jGlY2pUmAAoUkI-123" value="" style="shape=image;verticalLabelPosition=bottom;labelBackgroundColor=default;verticalAlign=top;aspect=fixed;imageAspect=0;image=data:image/png,iVBORw0KGgoAAAANSUhEUgAAAFoAAABaCAYAAAA4qEECAAAACXBIWXMAAAsTAAALEwEAmpwYAAAEU0lEQVR4nO2cTahWRRiAnxsiBG0qLMmVEZEaUWEILVKoTWTbxDaGq342YUQtvN5zNyKSJmpYBPbnQmpbihRtLkjUtiKIyn5MBfWq1+vNrjoyMB+YnTnfd+bnnJlz3gdmc++cOXOfO9/MO/PNDAiCIAiCIOTOMuBT4CxwCZgC1rZdqa7xJDADqJvSNWC87cp1hSeAiyWS1Q1pW9uV7INkJbKbk6xEdnOSlciuP/BdcpSsTCoc/8G9YbkluhDZgfkskGQlLbua6cCilXQj5cxFEK1E9v+ZiiRaiez/stZMq1OW/TDwCXAc+Bf4C/gQeJDMGI8oWnnKfg24Yil3HniFzHgjsuxtDnUqRix7M5mRkuyiZtnZya77B6qaaU3EOrxJZsRq2RMN/KM39132RIOfpt7Knmihy8pOdtFAaFdE6qqyC/2KDCUP4uwVZEaRmeRB+oAMKQJKnmxAsk5/kClFRpJ1ukzGFJlI1ulPMqfIQLJOH9EBisQl61W/h+gIqxOVrNMmesRkS5JHmY12hkmRHJ/XRXJ8HgGuSncRnwMiuRmOy8CX96Yc1ffo4maOieRmeF9acnOnuf6JKHsLPWMlsB04Cpwyx+T0atlXwA8iOczm9a9bCOG2BFp7yYLnI3cLPpLrrCYmz97EJauuyB4D9iQuuTOHTscaku0jWWTTnOROyX7HoaV+XzGg6q+fXm1pn0nnZH8JPAC8B/xqzjn+Buwf8bhEzJ1Tneqzj3m8y3d3U6+6kWnHd4TaQhatZd8SOX9d2X9Tn9D79ILKvtVMMM6ZtMf8LFR+V9n6bGMdYm2GDCZ7V0nhOwPmd5W9ldFZE0lyUNknSwo+ETC/q2x9QLMOReqyL1sKXmjJf8GS/7aAso84lpW07NOWQu+05P/Jkv8xjzrcKFtfvnK/R1mxZTvffvazpUC976KMLyz5d+LHmBlk1+FPbNnPulTqsKWw9Zb8L1vyzyV2FiSm7LoRkTWKUOajXMYSc8Cm7JnfE7tNIJbsWZfKrLMUprsUG/sqKjEHvA2s8hggU5d9xqUid1XcxaFllbHYTFZGnUrvdZjUpCz7oGtFvrEU+HHFM09X3JGhStK7tEso2TNmVdEJ2wCn++L7Kp57sYbsWY/1kVRk69DzKZ8K3FFxr50O5xjSss9lItpHtrfkAW9VvGTDkGcXmwFyvqIM/ftUKNqSPJBlm15fHHHt4R7gJeBz4EfzKdE7k3a3PBj6yA4qecCmiheeGNJf50jRhmTNAuC7IbJtU/NcGbeEtzOxJA+4d8jgpge1jXTvXr8p04LPmDjZOYSrwzNDBjZl1kh8VtkEwwsj3N44bw79PC7W/GUPa9mD9IsJ4fRO0kfNerbtywPB0o34XGs8ncBaRzYsBb71kK0SWOvIhgVmv9t5R9GziUzBs+FucybFNotUIjost5vp9tER75beF/j9vWQR8BywAzhkvik/bbYypLrWIQiCIAiCQL5cB0VrOkREZnNaAAAAAElFTkSuQmCC;" vertex="1" parent="giXjE-jGlY2pUmAAoUkI-122">
          <mxGeometry width="90" height="90" as="geometry" />
        </mxCell>
        <mxCell id="giXjE-jGlY2pUmAAoUkI-124" value="&lt;b style=&quot;font-size: 11px;&quot;&gt;&lt;font style=&quot;font-size: 11px;&quot;&gt;GNSS&lt;/font&gt;&lt;/b&gt;" style="text;html=1;strokeColor=none;fillColor=none;align=center;verticalAlign=middle;whiteSpace=wrap;rounded=0;fontFamily=Verdana;fontSize=11;" vertex="1" parent="giXjE-jGlY2pUmAAoUkI-122">
          <mxGeometry x="70" y="20" width="60" height="30" as="geometry" />
        </mxCell>
        <mxCell id="giXjE-jGlY2pUmAAoUkI-125" value="" style="endArrow=none;dashed=1;html=1;dashPattern=1 3;strokeWidth=2;rounded=0;entryX=0;entryY=1;entryDx=0;entryDy=0;" edge="1" parent="1" target="giXjE-jGlY2pUmAAoUkI-123">
          <mxGeometry width="50" height="50" relative="1" as="geometry">
            <mxPoint x="640" y="360" as="sourcePoint" />
            <mxPoint x="882" y="-171" as="targetPoint" />
          </mxGeometry>
        </mxCell>
      </root>
    </mxGraphModel>
  </diagram>
</mxfile>
